<?xml version="1.0" standalone="no"?><!-- Generator: Gravit.io --><svg xmlns="http://www.w3.org/2000/svg" xmlns:xlink="http://www.w3.org/1999/xlink" style="isolation:isolate" viewBox="0 0 20 20" width="20" height="20"><defs><clipPath id="_clipPath_n4uN6AakMzqF58FHuEoD5lpaG3Gf490K"><rect width="20" height="20"/></clipPath></defs><g clip-path="url(#_clipPath_n4uN6AakMzqF58FHuEoD5lpaG3Gf490K)"><rect width="20" height="20" style="fill:rgb(113,89,89)" fill-opacity="0"/><circle vector-effect="non-scaling-stroke" cx="10" cy="10" r="10" fill="rgb(231,58,158)"/><path d="M 10 3 L 10 3 C 10.552 3 11 3.448 11 4 L 11 16 C 11 16.552 10.552 17 10 17 L 10 17 C 9.448 17 9 16.552 9 16 L 9 4 C 9 3.448 9.448 3 10 3 Z" style="stroke:none;fill:#EBEBEB;stroke-miterlimit:10;"/><path d="M 3 10 L 3 10 C 3 9.448 3.448 9 4 9 L 16 9 C 16.552 9 17 9.448 17 10 L 17 10 C 17 10.552 16.552 11 16 11 L 4 11 C 3.448 11 3 10.552 3 10 Z" style="stroke:none;fill:#EBEBEB;stroke-miterlimit:10;"/></g></svg>