<svg xmlns="http://www.w3.org/2000/svg" width="388" height="359" viewBox="0 0 388 359">
    <defs>
        <linearGradient id="a" x1="50.004%" x2="50.004%" y1="100.017%" y2=".005%">
            <stop offset="0%" stop-color="gray" stop-opacity=".25"/>
            <stop offset="54%" stop-color="gray" stop-opacity=".12"/>
            <stop offset="100%" stop-color="gray" stop-opacity=".1"/>
        </linearGradient>
        <linearGradient id="b" x1="50.007%" x2="50.007%" y1="99.971%" y2="-.029%">
            <stop offset="0%" stop-color="gray" stop-opacity=".25"/>
            <stop offset="54%" stop-color="gray" stop-opacity=".12"/>
            <stop offset="100%" stop-color="gray" stop-opacity=".1"/>
        </linearGradient>
        <linearGradient id="c" x1="49.998%" x2="49.998%" y1="100.008%" y2="-.007%">
            <stop offset="0%" stop-color="gray" stop-opacity=".25"/>
            <stop offset="54%" stop-color="gray" stop-opacity=".12"/>
            <stop offset="100%" stop-color="gray" stop-opacity=".1"/>
        </linearGradient>
        <linearGradient id="d" x1="49.99%" x2="49.99%" y1="100.002%" y2=".006%">
            <stop offset="0%" stop-color="gray" stop-opacity=".25"/>
            <stop offset="54%" stop-color="gray" stop-opacity=".12"/>
            <stop offset="100%" stop-color="gray" stop-opacity=".1"/>
        </linearGradient>
        <linearGradient id="e" x1="50.006%" x2="50.006%" y1="100%" y2="-.01%">
            <stop offset="0%" stop-color="gray" stop-opacity=".25"/>
            <stop offset="54%" stop-color="gray" stop-opacity=".12"/>
            <stop offset="100%" stop-color="gray" stop-opacity=".1"/>
        </linearGradient>
        <linearGradient id="f" x1="49.997%" x2="49.997%" y1="100.027%" y2=".024%">
            <stop offset="0%" stop-color="gray" stop-opacity=".25"/>
            <stop offset="54%" stop-color="gray" stop-opacity=".12"/>
            <stop offset="100%" stop-color="gray" stop-opacity=".1"/>
        </linearGradient>
        <linearGradient id="g" x1="49.995%" x2="49.995%" y1="99.995%" y2="-.006%">
            <stop offset="0%" stop-color="gray" stop-opacity=".25"/>
            <stop offset="54%" stop-color="gray" stop-opacity=".12"/>
            <stop offset="100%" stop-color="gray" stop-opacity=".1"/>
        </linearGradient>
    </defs>
    <g fill="none" fill-rule="evenodd">
        <g fill="#EF63FF" fill-rule="nonzero">
            <path d="M225.431 52.622c-24.873-1.047-48.565-10.799-71.186-21.468-22.62-10.669-45.032-22.485-69.308-28.138C69.321-.62 51.463-1.132 38.882 9.032c-12.1 9.765-16.021 26.67-18.123 42.339-1.582 11.786-2.513 24.181 1.82 35.23 3.012 7.663 8.358 14.104 12.056 21.442 12.859 25.537 3.777 57.031-10.17 81.963-6.525 11.699-14.123 22.856-19.167 35.305-5.044 12.45-7.379 26.72-2.967 39.42 4.378 12.591 14.803 22.047 26.096 28.697 22.94 13.508 49.973 17.377 76.333 19.566 58.35 4.845 117.014 2.748 175.52.647 21.652-.78 43.398-1.568 64.7-5.633 11.825-2.256 24.035-5.837 32.62-14.488 10.901-10.982 13.603-29.577 6.297-43.36-12.252-23.094-46.131-28.83-54.695-53.617-4.714-13.641.127-28.842 6.977-41.492 14.696-27.146 39.33-50.96 40.627-81.984.893-21.309-10.95-42.65-29.258-52.732-19.194-10.569-45.804-9.24-59.965 8.255-14.569 18.028-40.19 24.957-62.152 24.032z" opacity=".1"/>
            <path d="M107.847 39.703L89.054 49.838a.39.39 0 0 0 .028.686l3.207 1.203a.779.779 0 0 1 .422.394l2.49 5.12c.048.226.466.285.47.055l-.381-4.23a1.52 1.52 0 0 1 .343-.856l9.745-9.528a.24.24 0 0 1 .213-.062.223.223 0 0 1 .12.343l-8.399 10.302c-.182.249-.3.539-.343.844l-.484 3.653c.04.319.292.439.49.154l1.81-2.121a.378.378 0 0 1 .532-.09l4.663 3.394a.378.378 0 0 0 .594-.23l3.825-18.744a.38.38 0 0 0-.549-.422h-.003zM306.28 43.686l-18.793 10.148a.39.39 0 0 0 .031.686l3.204 1.206c.188.07.34.212.422.394l2.493 5.117c.048.227.463.288.47.059l-.381-4.233a1.5 1.5 0 0 1 .343-.854l9.742-9.528a.234.234 0 0 1 .212-.061.223.223 0 0 1 .124.343l-8.402 10.254c-.183.25-.3.54-.343.847l-.505 3.653c.041.319.292.442.494.154l1.81-2.118a.378.378 0 0 1 .532-.089l4.663 3.39a.375.375 0 0 0 .59-.23l3.826-18.744a.38.38 0 0 0-.55-.421l.017.027zM190.312 6.554l-12.831 6.927a.267.267 0 0 0 .017.48l2.19.822c.128.049.231.145.289.268l1.717 3.496c.034.154.319.195.322.04l-.26-2.892c.016-.213.097-.417.233-.583l6.654-6.512a.158.158 0 0 1 .144-.04.151.151 0 0 1 .083.243l-5.734 7.002a1.28 1.28 0 0 0-.223.575l-.344 2.496c.028.219.196.301.344.106l1.236-1.447a.258.258 0 0 1 .343-.061l3.183 2.317a.258.258 0 0 0 .405-.158l2.613-12.798a.257.257 0 0 0-.374-.288l-.007.007zM263.335.032l-12.831 6.93a.267.267 0 0 0 .017.477l2.19.822a.518.518 0 0 1 .289.27l1.7 3.493c.034.155.319.196.322.041l-.247-2.889c.016-.214.097-.419.233-.586l6.655-6.512a.158.158 0 0 1 .144-.04.151.151 0 0 1 .082.242l-5.74 7.01a1.28 1.28 0 0 0-.224.575l-.343 2.499c.027.216.199.298.343.102l1.236-1.446a.258.258 0 0 1 .36-.062l3.187 2.317a.254.254 0 0 0 .402-.157L263.702.32a.257.257 0 0 0-.374-.288h.007zM312.134 89.047l-37.88-3.123a.687.687 0 0 0-.639 1.07l3.602 4.908c.212.286.301.645.247.997l-1.277 10.042c-.148.38.416.878.646.542l3.557-6.69a2.682 2.682 0 0 1 1.342-.94l23.795-4.736a.423.423 0 0 1 .375.113.397.397 0 0 1-.165.651l-22.5 7.14c-.51.2-.96.523-1.316.938l-4.309 4.956c-.247.518 0 .94.584.71l4.762-1.402a.687.687 0 0 1 .88.384l3.639 9.576a.686.686 0 0 0 1.109.233l23.956-24.207a.685.685 0 0 0-.408-1.162z"/>
        </g>
        <g transform="translate(20 43)">
            <path fill="url(#a)" fill-rule="nonzero" d="M251.041 231.502c.004-14.412-10.96-26.46-25.31-27.809-14.348-1.349-27.367 8.443-30.05 22.603l-85.823-2.328.943 14.744s-12.238 28.238 52.08 35.761v28.54h74.355V255.56a27.907 27.907 0 0 0 13.805-24.06z"/>
            <path fill="#BE7C5E" fill-rule="nonzero" d="M113.747 239.331s-11.718 27.04 49.876 34.255v27.343h71.21v-72.412l-122-3.308.914 14.122z"/>
            <ellipse cx="221.659" cy="231.392" fill="#BE7C5E" fill-rule="nonzero" rx="26.742" ry="26.741"/>
            <path fill="url(#b)" fill-rule="nonzero" d="M146.163 291.982h101.781v23.726H146.163z"/>
            <path fill="#4D8AF0" fill-rule="nonzero" d="M148.913 294.733h96.279v18.568h-96.279z"/>
            <path stroke="#535461" stroke-width="2" d="M281.61 269.326s4.98-25.225-5.274-42.514a38.958 38.958 0 0 1-5.374-24.049 65.52 65.52 0 0 1 2.407-11.739"/>
            <path fill="#EF63FF" fill-rule="nonzero" d="M266.966 180.09c.275 3.009 6.533 11.237 6.533 11.237s4.65-9.23 4.37-12.241a5.474 5.474 0 1 0-10.9 1l-.003.004zM259.487 197.588c1.867 2.376 11.588 5.887 11.588 5.887s-1.114-10.274-2.981-12.65a5.474 5.474 0 0 0-8.596 6.763h-.01zM262.5 226.046c2.812 1.107 12.973-.77 12.973-.77s-6.148-8.308-8.96-9.415a5.474 5.474 0 0 0-4.014 10.185zM282.543 248.5s-4.656-9.226-7.242-10.794a5.474 5.474 0 1 0-5.677 9.36c2.586 1.567 12.919 1.433 12.919 1.433zM282.574 203.008c-1.967 2.297-11.826 5.391-11.826 5.391s1.548-10.22 3.511-12.513a5.474 5.474 0 1 1 8.315 7.122zM290.596 227.693c-2.562 1.602-12.898 1.605-12.898 1.605s4.532-9.284 7.097-10.89a5.474 5.474 0 1 1 5.8 9.285zM295.104 252.76c-2.256 2.011-12.441 3.765-12.441 3.765s2.899-9.92 5.158-11.932a5.474 5.474 0 1 1 7.286 8.17l-.003-.003z"/>
            <g>
                <path stroke="#535461" stroke-width="2" d="M39.895 263s8.67-43.49-9.184-73.298a66.63 66.63 0 0 1-9.359-41.463A111.988 111.988 0 0 1 25.543 128"/>
                <path fill="#EF63FF" fill-rule="nonzero" d="M14.054 109.544c.477 5.21 11.34 19.456 11.34 19.456s8.069-15.98 7.585-21.194a9.478 9.478 0 0 0-5.44-7.908 9.521 9.521 0 0 0-9.573.877 9.468 9.468 0 0 0-3.906 8.763l-.006.006zM1.78 139.89C5.038 143.972 22 150 22 150s-1.944-17.644-5.202-21.724c-3.333-3.82-9.132-4.376-13.152-1.263-4.02 3.113-4.835 8.79-1.848 12.878H1.78zM6.799 188.39C11.612 190.322 29 187.046 29 187.046s-10.52-14.5-15.334-16.433c-4.789-1.836-10.136.587-12.012 5.442C-.22 180.909 2.07 186.4 6.8 188.39zM41 226.995s-8.042-15.855-12.508-18.55a9.497 9.497 0 0 0-9.54-.31 9.402 9.402 0 0 0-4.95 8.121 9.398 9.398 0 0 0 4.684 8.275C23.152 227.226 41 226.995 41 226.995zM41.615 148.695C38.186 152.66 21 158 21 158s2.697-17.636 6.12-21.594a9.596 9.596 0 0 1 9.044-3.253c3.387.61 6.18 2.977 7.308 6.196a9.375 9.375 0 0 1-1.857 9.346zM55.417 191.27C50.964 193.993 33 194 33 194s7.877-15.787 12.335-18.518a9.695 9.695 0 0 1 9.58-.412c3.035 1.562 4.977 4.602 5.08 7.956.105 3.355-1.645 6.504-4.578 8.243zM62.693 234.526C58.76 237.985 41 241 41 241s5.055-17.058 8.994-20.516a9.645 9.645 0 0 1 9.407-2.024c3.277 1.049 5.726 3.757 6.41 7.086a9.337 9.337 0 0 1-3.112 8.986l-.006-.006z"/>
            </g>
            <g fill-rule="nonzero" transform="translate(117.647)">
                <g opacity=".9">
                    <rect width="3.408" height="28.103" x="113.565" y="52.922" fill="#3A3768" rx="1.704"/>
                    <rect width="1.912" height="9.253" x=".241" y="30.905" fill="#3A3768" rx=".956"/>
                    <rect width="2.156" height="16.106" x=".172" y="47.844" fill="#3A3768" rx="1.078"/>
                    <rect width="2.053" height="16.244" x=".206" y="69.582" fill="#3A3768" rx="1.026"/>
                    <rect width="114.08" height="231.849" x="1.324" y=".327" fill="#3A3768" rx="8"/>
                    <rect width="15.931" height="3.236" x="47.359" y="7.252" fill="#E6E8EC" rx="1.618"/>
                    <ellipse cx="67.533" cy="8.868" fill="#E6E8EC" rx="1.836" ry="1.836"/>
                </g>
                <path fill="#EF63FF" d="M99.298 6.368H86.232v1.575a7.458 7.458 0 0 1-7.462 7.458H37.136a7.462 7.462 0 0 1-7.461-7.458V6.368H17.43a9.06 9.06 0 0 0-9.06 9.06v201.65a9.06 9.06 0 0 0 9.06 9.06h81.868a9.06 9.06 0 0 0 9.06-9.06V15.427a9.06 9.06 0 0 0-9.06-9.06z" opacity=".5"/>
                <path fill="#E6E8EC" d="M8.452 21.824H108.52v9.236H8.452z"/>
                <path fill="#3A3768" d="M11.533 23.746h8.469v1h-8.469zM11.533 26.057h8.469v1h-8.469zM11.533 28.368h8.469v1h-8.469zM101.78 27.333h-.312l-.12-.096a2.634 2.634 0 0 0 .612-1.685 2.558 2.558 0 1 0-2.545 2.575 2.64 2.64 0 0 0 1.678-.615l.117.1v.316l1.974 1.98.591-.595-1.994-1.98zm-2.365 0a1.781 1.781 0 1 1 1.774-1.781 1.771 1.771 0 0 1-1.774 1.78z"/>
                <ellipse cx="15.766" cy="47.995" fill="#E6E8EC" rx="4.233" ry="4.233"/>
                <path fill="#E6E8EC" d="M29.045 52.228h58.888v2.311H29.045zM29.238 57.231h58.888v2.311H29.238zM29.43 62.237h58.888v2.311H29.43z"/>
                <ellipse cx="15.766" cy="76.861" fill="#E6E8EC" rx="4.233" ry="4.233"/>
                <path fill="#E6E8EC" d="M29.045 81.094h58.888v2.311H29.045zM29.238 86.097h58.888v2.311H29.238zM29.43 91.1h58.888v2.311H29.43z"/>
                <ellipse cx="15.766" cy="105.728" fill="#E6E8EC" rx="4.233" ry="4.233"/>
                <path fill="#E6E8EC" d="M29.045 109.96h58.888v2.311H29.045zM29.238 114.963h58.888v2.311H29.238zM29.43 119.967h58.888v2.311H29.43z"/>
                <ellipse cx="15.766" cy="134.594" fill="#E6E8EC" rx="4.233" ry="4.233"/>
                <path fill="#E6E8EC" d="M29.045 138.827h58.888v2.311H29.045zM29.238 143.83h58.888v2.311H29.238zM29.43 148.833h58.888v2.311H29.43z"/>
                <ellipse cx="15.766" cy="163.46" fill="#E6E8EC" rx="4.233" ry="4.233"/>
                <path fill="#E6E8EC" d="M29.045 167.693h58.888v2.311H29.045zM29.238 172.696h58.888v2.311H29.238zM29.43 177.699h58.888v2.311H29.43z"/>
            </g>
            <g fill-rule="nonzero">
                <path fill="url(#c)" d="M64.68 45.24c-3.865 6.1-11.93 7.933-18.052 4.103L8.395 24.149C2.295 20.283.463 12.218 4.293 6.096 8.157.006 16.213-1.826 22.33 1.994l38.233 25.194c6.104 3.861 7.944 11.927 4.116 18.053z" transform="translate(85 81.249)"/>
                <path fill="#BE7C5E" d="M147.562 125.114c-3.593 5.67-11.09 7.373-16.78 3.813L95.23 105.49c-5.67-3.592-7.373-11.09-3.813-16.78 3.592-5.669 11.09-7.373 16.78-3.813l35.544 23.423c5.68 3.591 7.388 11.1 3.82 16.794z"/>
                <path fill="url(#d)" d="M49.84 116.274c-3.819 6.026-11.788 7.838-17.836 4.054L6.363 103.737C.336 99.918-1.476 91.949 2.308 85.9c3.819-6.027 11.788-7.838 17.836-4.054l25.641 16.59c6.027 3.82 7.839 11.788 4.054 17.837z" transform="translate(85 81.249)"/>
                <path fill="url(#e)" d="M43.402 151.391c-3.852 6.082-11.893 7.91-17.997 4.092L9.523 143.902c-6.083-3.852-7.91-11.894-4.092-17.997 3.852-6.082 11.894-7.91 17.997-4.092l15.883 11.584c6.08 3.853 7.908 11.891 4.091 17.994z" transform="translate(85 81.249)"/>
                <path fill="#BE7C5E" d="M127.12 231.777c-3.593 5.67-11.09 7.373-16.78 3.813l-14.813-10.783c-5.67-3.593-7.374-11.09-3.814-16.78 3.593-5.67 11.09-7.373 16.78-3.813l14.81 10.804c5.658 3.59 7.362 11.072 3.817 16.759zM133.43 196.611c-3.593 5.67-11.09 7.373-16.78 3.813l-24.125-15.61c-5.67-3.593-7.373-11.09-3.814-16.78 3.593-5.67 11.09-7.374 16.78-3.814l24.125 15.611c5.67 3.593 7.373 11.09 3.814 16.78z"/>
                <path fill="url(#f)" d="M56.469 81.32c-3.837 6.054-11.842 7.873-17.918 4.072L6.056 64.235c-6.053-3.837-7.872-11.842-4.07-17.918 3.836-6.053 11.841-7.872 17.917-4.071l32.495 21.157c6.053 3.837 7.872 11.842 4.07 17.918z" transform="translate(85 81.249)"/>
                <path fill="#BE7C5E" d="M139.743 161.47c-3.593 5.669-11.09 7.373-16.78 3.813l-30.435-19.816c-5.67-3.593-7.373-11.09-3.813-16.78 3.593-5.67 11.09-7.374 16.78-3.814l30.431 19.816c5.67 3.592 7.376 11.09 3.817 16.78z"/>
            </g>
            <path fill="url(#g)" fill-rule="nonzero" d="M218.058 242.479c-6.924 1.327-11.676-2.416-13.277-8.151l-15.909-48.959c-1.583-5.758 2.74-11.495 9.679-12.842 6.947-1.311 13.869 2.272 15.494 8.022l12.983 50.222c1.601 5.738-2.05 10.38-8.97 11.708z" transform="rotate(-41 207.973 207.502)"/>
            <path fill="#FFF" fill-rule="nonzero" d="M147.218 189.806h58.455v14.098h-58.455z"/>
            <path fill="#BE7C5E" fill-rule="nonzero" d="M176.154 189.447c3.257-5.878 10.664-8.004 16.542-4.746l43.377 24.034c5.879 3.257 8.004 10.663 4.747 16.542-3.258 5.879-10.664 8.004-16.542 4.747L180.9 205.989c-5.879-3.257-8.004-10.663-4.747-16.542z"/>
        </g>
    </g>
</svg>
