<svg xmlns="http://www.w3.org/2000/svg" width="16" height="12" viewBox="0 0 16 12">
    <g fill="#B1B1B1" fill-rule="nonzero">
        <path d="M1.259.76l5.734 4.542c.26.206.618.297.966.28.347.017.706-.073.966-.28L14.658.761c.46-.362.356-.659-.227-.659H1.488c-.583 0-.687.297-.23.659z"/>
        <path d="M15.073 1.959L8.807 6.716a1.39 1.39 0 0 1-.847.258 1.394 1.394 0 0 1-.847-.258L.846 1.959C.38 1.606 0 1.795 0 2.379v7.805c0 .583.478 1.061 1.061 1.061h13.796c.584 0 1.061-.478 1.061-1.061V2.379c0-.584-.38-.773-.845-.42z"/>
    </g>
</svg>
