<svg xmlns="http://www.w3.org/2000/svg" width="16" height="24" viewBox="0 0 16 24">
    <path fill="#B1B1B1" fill-rule="evenodd" stroke="#B1B1B1" stroke-width=".5" d="M8 15.667c.12 0 .239.045.33.133l5.737 5.634V3.292c0-.758-.628-1.375-1.4-1.375H3.333c-.772 0-1.4.617-1.4 1.375v18.143l5.737-5.634a.47.47 0 0 1 .33-.134zM14.533 23a.475.475 0 0 1-.33-.134L8 16.773l-6.203 6.092A.47.47 0 0 1 1 22.542V3.292C1 2.028 2.047 1 3.333 1h9.334C13.953 1 15 2.029 15 3.292v19.25a.458.458 0 0 1-.467.458z"/>
</svg>
