<svg xmlns="http://www.w3.org/2000/svg" width="20" height="20" viewBox="0 0 20 20">
    <g fill="#B1B1B1" fill-rule="nonzero">
        <path d="M7.07 11.015a.453.453 0 0 0-.453-.453H5.035a.453.453 0 0 0-.453.453v1.581c0 .25.203.453.453.453h1.582c.25 0 .453-.203.453-.453v-1.581zM11.022 11.015a.453.453 0 0 0-.453-.453H8.987a.453.453 0 0 0-.452.453v1.581c0 .25.202.453.452.453h1.582c.25 0 .453-.203.453-.453v-1.581zM14.974 11.015a.453.453 0 0 0-.453-.453H12.94a.453.453 0 0 0-.453.453v1.581c0 .25.202.453.453.453h1.581c.25 0 .453-.203.453-.453v-1.581zM7.07 14.967a.453.453 0 0 0-.453-.453H5.035a.453.453 0 0 0-.453.453v1.581c0 .25.203.453.453.453h1.582c.25 0 .453-.203.453-.453v-1.58zM11.022 14.967a.453.453 0 0 0-.453-.453H8.987a.453.453 0 0 0-.452.453v1.581c0 .25.202.453.452.453h1.582c.25 0 .453-.203.453-.453v-1.58zM14.974 14.967a.453.453 0 0 0-.453-.453H12.94a.453.453 0 0 0-.453.453v1.581c0 .25.202.453.453.453h1.581c.25 0 .453-.203.453-.453v-1.58z"/>
        <path d="M17.802 2.223v2.415a1.973 1.973 0 0 1-1.977 1.971h-1.247a1.983 1.983 0 0 1-1.99-1.97V2.213h-5.62v2.424a1.983 1.983 0 0 1-1.99 1.971H3.732a1.973 1.973 0 0 1-1.976-1.97V2.222A1.798 1.798 0 0 0 .017 4.011v14.154c0 .989.801 1.8 1.79 1.8H17.75a1.8 1.8 0 0 0 1.79-1.8V4.011c0-.97-.784-1.76-1.738-1.788zm-.58 15.06a.774.774 0 0 1-.773.774H3.073a.774.774 0 0 1-.773-.773V9.973c0-.428.346-.774.773-.774H16.45c.427 0 .773.346.773.774v7.31z"/>
        <path d="M3.727 5.315h1.234a.678.678 0 0 0 .678-.678V.677A.678.678 0 0 0 4.96 0H3.727a.678.678 0 0 0-.678.678v3.96c0 .374.304.677.678.677zM14.562 5.315h1.233a.678.678 0 0 0 .678-.678V.677A.678.678 0 0 0 15.795 0h-1.233a.678.678 0 0 0-.678.678v3.96c0 .374.303.677.678.677z"/>
    </g>
</svg>
