<svg xmlns="http://www.w3.org/2000/svg" width="68" height="101" viewBox="0 0 68 101">
    <g fill="none" fill-rule="evenodd">
        <path stroke="#535461" stroke-width="2" d="M52.697 100s5.367-26.416-5.686-44.522c-4.685-7.565-6.718-16.402-5.793-25.184A66.908 66.908 0 0 1 43.813 18"/>
        <path fill="#EF63FF" fill-rule="nonzero" d="M36.034 6.326C36.336 9.452 43.196 18 43.196 18s5.096-9.587 4.79-12.717C47.834 3.23 46.519 1.414 44.552.54c-1.967-.875-4.28-.674-6.046.526-1.767 1.2-2.71 3.211-2.467 5.258l-.004.003zM29.052 24.934C30.977 27.383 41 31 41 31s-1.149-10.586-3.074-13.035a5.647 5.647 0 0 0-7.772-.757 5.638 5.638 0 0 0-1.091 7.726h-.011zM32.52 54.615c2.923 1.22 13.48-.85 13.48-.85s-6.388-9.157-9.31-10.378c-2.908-1.16-6.154.37-7.293 3.437-1.138 3.066.252 6.534 3.124 7.79zM53 77.997s-4.766-9.513-7.412-11.13a5.568 5.568 0 0 0-5.654-.186 5.65 5.65 0 0 0-2.933 4.873 5.653 5.653 0 0 0 2.776 4.965C42.424 78.135 53 77.997 53 77.997zM53.548 30.417C51.461 32.796 41 36 41 36s1.642-10.582 3.725-12.957c1.34-1.571 3.444-2.317 5.505-1.951 2.062.365 3.761 1.786 4.449 3.717a5.564 5.564 0 0 1-1.13 5.608zM61.284 56.362C58.646 57.996 48 58 48 58s4.668-9.472 7.31-11.11a5.684 5.684 0 0 1 5.676-.248 5.58 5.58 0 0 1 3.011 4.774 5.573 5.573 0 0 1-2.713 4.946zM66.016 83.06C63.656 85.164 53 87 53 87s3.033-10.383 5.396-12.488a5.726 5.726 0 0 1 9.49 3.081 5.73 5.73 0 0 1-1.866 5.47l-.004-.004z"/>
        <g fill="#EF63FF" fill-rule="nonzero" transform="translate(0 78)">
            <path d="M33.752 10.016s-13.177-.734-11.625 7.79c0 0-.312 1.509 1.172 2.194 0 0 .022-.633 1.35-.417.473.072.954.093 1.433.063a3.114 3.114 0 0 0 1.749-.668s3.705-1.413 5.145-7.005c0 0 1.066-1.217 1.023-1.531l-2.223.863s.761 1.48.163 2.711c0 0-.072-2.659-.5-2.59-.086.014-1.155.512-1.155.512s1.305 2.59.311 4.459c0 0 .374-3.18-.73-4.272l-1.557.844s1.527 2.668.492 4.84c0 0 .265-3.335-.823-4.633l-1.418 1.022s1.437 2.625.561 4.43c0 0-.115-3.883-.87-4.177 0 0-1.246 1.01-1.427 1.44 0 0 .982 1.904.37 2.912 0 0-.373-2.59-.679-2.59 0 0-1.246 1.712-1.365 2.878 0 0 .053-1.747 1.066-3.051a3.823 3.823 0 0 0-1.895.903s.194-1.211 2.2-1.318c0 0 1.023-1.298 1.294-1.378 0 0-1.995-.156-3.204.342 0 0 1.066-1.151 3.572-.624l1.4-1.057s-2.628-.33-3.74.035c0 0 1.28-1.01 4.116-.274l1.515-.846s-2.238-.443-3.572-.288c0 0 1.406-.699 4.021.06l1.088-.45s-1.64-.289-2.12-.346c-.48-.058-.508-.17-.508-.17a6.13 6.13 0 0 1 3.083.316s2.325-.797 2.287-.93z"/>
            <ellipse cx="24.5" cy="20.5" opacity=".1" rx="9.5" ry="1.5"/>
            <path d="M10.848 10.01s-7.685-.442-6.773 4.675c-.096.533.18 1.064.684 1.315 0 0 0-.377.787-.248.276.043.556.055.835.037a1.77 1.77 0 0 0 1.022-.402s2.161-.846 3-4.204c0 0 .622-.73.596-.92l-1.29.528s.442.889.094 1.627c0 0-.042-1.593-.29-1.557-.052 0-.674.307-.674.307s.764 1.55.187 2.675c0 0 .219-1.91-.426-2.562l-.926.506s.89 1.6.287 2.905c0 0 .155-2.001-.477-2.78l-.829.613s.839 1.575.323 2.657c0 0-.065-2.329-.507-2.507-.313.253-.593.54-.832.858 0 0 .571 1.143.216 1.747 0 0-.216-1.55-.396-1.56 0 0-.723 1.03-.797 1.735.035-.654.25-1.288.623-1.839-.417.075-.801.263-1.107.542 0 0 .113-.726 1.29-.79 0 0 .597-.778.755-.827 0 0-1.164-.092-1.867.205 0 0 .62-.687 2.08-.374l.82-.634s-1.533-.2-2.184.021c0 0 .748-.613 2.402-.165l.89-.506a8.547 8.547 0 0 0-2.086-.171s.822-.42 2.348.036l.645-.272s-.968-.178-1.239-.206c-.27-.027-.293-.1-.293-.1a3.44 3.44 0 0 1 1.796.19s1.338-.476 1.313-.555z"/>
            <ellipse cx="5.5" cy="17" opacity=".1" rx="5.5" ry="1"/>
            <path d="M24.825.011s-8.774-.512-7.74 5.456c-.11.621.206 1.24.78 1.533 0 0 .015-.444.915-.296.315.052.635.067.954.044a2.002 2.002 0 0 0 1.159-.458s2.466-.988 3.426-4.9c0 0 .708-.852.68-1.074L23.521.93s.503 1.036.106 1.897c0 0-.049-1.858-.332-1.817-.058 0-.768.361-.768.361s.869 1.805.213 3.119c0 0 .247-2.225-.488-2.989l-1.04.592s1.016 1.867.327 3.388c0 0 .177-2.335-.546-3.255l-.945.716s.954 1.838.372 3.098c0 0-.076-2.716-.576-2.92 0 0-.826.707-.955.997 0 0 .656 1.334.25 2.039 0 0-.25-1.811-.454-1.82 0 0-.823 1.201-.914 2.02.04-.76.286-1.496.71-2.135-.476.088-.914.309-1.262.636 0 0 .128-.85 1.466-.923 0 0 .68-.912.86-.965 0 0-1.326-.11-2.134.237 0 0 .71-.8 2.378-.435l.933-.74s-1.75-.23-2.491.024c0 0 .854-.708 2.744-.19l1.015-.592S20.5.98 19.612 1.076c0 0 .936-.491 2.677.042L23.014.8s-1.091-.207-1.411-.24c-.32-.032-.339-.121-.339-.121a3.896 3.896 0 0 1 2.052.222s1.546-.556 1.51-.651z"/>
            <ellipse cx="18.5" cy="7.5" opacity=".1" rx="6.5" ry="1.5"/>
        </g>
    </g>
</svg>
