<svg xmlns="http://www.w3.org/2000/svg" width="20" height="20" viewBox="0 0 20 20">
    <g fill="none" fill-rule="evenodd">
        <path d="M.002 0H20v20H.002z"/>
        <path fill="#B1B1B1" d="M10 1.616c-4.623 0-8.384 3.761-8.384 8.384S5.377 18.384 10 18.384s8.384-3.761 8.384-8.384S14.623 1.616 10 1.616zM10 20a9.934 9.934 0 0 1-7.071-2.929A9.935 9.935 0 0 1 0 10a9.934 9.934 0 0 1 2.929-7.071A9.935 9.935 0 0 1 10 0a9.935 9.935 0 0 1 7.071 2.929A9.934 9.934 0 0 1 20 10a9.935 9.935 0 0 1-2.929 7.071A9.935 9.935 0 0 1 10 20z"/>
        <path fill="#B1B1B1" d="M12.733 13.542a.81.81 0 0 1-.571-.235l-2.759-2.73a.796.796 0 0 1-.236-.566V4.55c0-.442.362-.8.808-.8.446 0 .808.358.808.8v5.13l2.522 2.496a.794.794 0 0 1 0 1.131.81.81 0 0 1-.572.235"/>
    </g>
</svg>
