<svg xmlns="http://www.w3.org/2000/svg" width="15" height="20" viewBox="0 0 15 20">
    <g fill="#B1B1B1" fill-rule="evenodd">
        <path d="M5.529 2.006h3.473v-.702H5.529v.702zm8.35 0h-3.573V.652A.652.652 0 0 0 9.654 0H4.877a.652.652 0 0 0-.652.652v1.354H.652A.652.652 0 0 0 0 2.658v2.006c0 .36.292.653.652.653h13.226c.36 0 .653-.292.653-.653V2.658a.652.652 0 0 0-.652-.652zM3.99 9.273a.652.652 0 0 1 1.304 0v8.075a.652.652 0 1 1-1.305 0V9.273zm2.623 0a.652.652 0 0 1 1.304 0v8.075a.652.652 0 1 1-1.304 0V9.273zm2.624 0a.652.652 0 0 1 1.304 0v8.075a.652.652 0 1 1-1.304 0V9.273zm-7.79 10.102c.014.35.302.625.651.625h10.335c.35 0 .636-.275.651-.625l.541-12.754H.905l.541 12.754z"/>
    </g>
</svg>
