<svg xmlns="http://www.w3.org/2000/svg" width="28" height="42" viewBox="0 0 28 42">
    <path fill="#e0e0e0" fill-rule="nonzero" d="M27.357 34.03a.611.611 0 0 0-.607.615v5.785c0 .187-.15.34-.335.34h-3.263V28.653a.611.611 0 0 0-.607-.616.611.611 0 0 0-.607.616v12.115h-6.57l1.906-2.124a1.113 1.113 0 0 0 .26-.904l-1.815-10.866.489-.746c.27.194.478.382.869.382.397 0 .768-.226.951-.597l1.914-3.888 4.36 1.712c.157.068 2.448 1.114 2.448 3.875v4.161c0 .34.272.615.607.615a.611.611 0 0 0 .607-.615v-4.161c0-3.638-3.073-4.96-3.204-5.015a.285.285 0 0 0-.011-.004l-7.257-2.849V18.02a5.782 5.782 0 0 0 2.153-3.792 2.608 2.608 0 0 0 2.438-2.617c0-.633-.225-1.236-.626-1.707V7.625C21.457 3.421 18.082 0 13.935 0 9.787 0 6.412 3.42 6.412 7.625v2.339a2.49 2.49 0 0 0-.625 1.647c0 .762.326 1.483.895 1.979.435.38.968.597 1.542.638A5.718 5.718 0 0 0 10.5 18.11v1.634L3.25 22.594a.662.662 0 0 0-.011.004c-.131.055-3.204 1.377-3.204 5.015V40.43c0 .865.695 1.57 1.55 1.57h5.782a.611.611 0 0 0 .607-.615.611.611 0 0 0-.607-.616H6.062V28.654a.611.611 0 0 0-.607-.616.611.611 0 0 0-.607.616v12.115H1.585a.338.338 0 0 1-.335-.34V27.614c0-2.77 2.306-3.814 2.448-3.875l4.356-1.712 1.914 3.888c.183.372.555.597.952.597.388 0 .594-.185.868-.382l.49.746-1.815 10.866a1.113 1.113 0 0 0 .26.904l1.905 2.125H10.2a.611.611 0 0 0-.606.615c0 .34.271.615.606.615h16.215c.854 0 1.55-.704 1.55-1.57v-5.785a.611.611 0 0 0-.608-.615zm-8.552-12.45l-1.784 3.625-2.146-1.545 2.204-2.758 1.726.678zm-3.588 3.836l-.462.706H13.24l-.463-.706 1.22-.878 1.22.878zm-3.504-5.472v-1.152a6.085 6.085 0 0 0 2.295.441c.796 0 1.576-.172 2.27-.48v1.196l-2.28 2.853-2.285-2.858zm9.156-8.333a1.386 1.386 0 0 1-1.173 1.373v-2.746a1.386 1.386 0 0 1 1.173 1.373zM8.174 12.984a1.384 1.384 0 0 1-1.173-1.373c0-.658.537-1.194 1.173-1.342v2.715zm.033-3.97a2.966 2.966 0 0 0-.58.133V7.625c0-3.526 2.83-6.394 6.308-6.394 3.478 0 6.308 2.868 6.308 6.394v1.48a2.666 2.666 0 0 0-.547-.107c0-.594.005-.48-1.911-2.567a1.07 1.07 0 0 0-1.379-.17c-2.114 1.4-4.694 2.103-7.074 1.93a1.08 1.08 0 0 0-1.125.824zm1.18 4.454v-4.04c2.62.155 5.368-.634 7.587-2.074.878.956 1.354 1.458 1.508 1.648v4.466c0 2.498-2.01 4.534-4.474 4.534-2.767 0-4.62-2.175-4.62-4.534zm1.588 11.737L9.191 21.58l1.723-.677 2.205 2.759-2.144 1.543zm.697 12.669l1.756-10.522h1.14l1.756 10.522-2.326 2.594-2.326-2.594z"/>
</svg>
