<?xml version="1.0"?>
<svg xmlns="http://www.w3.org/2000/svg" xmlns:xlink="http://www.w3.org/1999/xlink" version="1.1" id="Capa_1" x="0px" y="0px" width="512px" height="512px" viewBox="0 0 690.932 690.932" style="enable-background:new 0 0 690.932 690.932;" xml:space="preserve" class=""><g><g>
	<g>
		<path d="M651.073,241.84v-88.883c0.255-0.746,0.392-1.548,0.392-2.379c0-2.852-1.618-5.327-3.986-6.557    c-6.476-4.215-82.067-60.243-132.28-97.457C484.334,23.687,459.646,5.39,454.686,1.825c-0.351-0.307-0.735-0.584-1.148-0.824    c-1.699-0.99-3.694-1.245-5.549-0.768c-1.152-0.104-2.198-0.129-2.922-0.129c-160.87,0-380.511,0-388.624-0.033    c-0.54-0.037-1.068-0.052-1.574-0.052c-8.733,0-14.418,5.522-15.212,14.85c-0.232,3.14-0.266,658.172-0.022,661.32    c0.842,9.231,6.531,14.743,15.208,14.743c0.536,0,1.09-0.022,1.666-0.063c6.295-0.077,149.251-0.118,288.592-0.118    c139.326,0,282.264,0.041,288.591,0.118c0.569,0.041,1.123,0.063,1.659,0.063c8.662,0,14.484-5.689,15.193-14.847h-0.022    C650.796,663.599,651.129,349.463,651.073,241.84z M635.791,675.109c-0.045,0.466-0.107,0.806-0.163,1.034    c-0.243,0.004-0.513,0.012-1.104-0.036c-2.061-0.13-222.05-0.141-289.426-0.141c-67.373,0-287.365,0.011-289.585,0.151    c-0.351,0.029-0.713,0.029-0.953,0.022c-0.062-0.233-0.137-0.569-0.185-1.031C54.267,660.695,54.3,30.292,54.407,15.818    c0.048-0.458,0.115-0.787,0.174-1.016c0.236-0.019,0.539-0.007,1.064,0.03c0.517,0.033,0.753,0.052,389.425,0.052    c1.285,0,2.363,0.133,2.686,0.221c0.04,0.011,0.081,0.022,0.121,0.034c7.603,5.552,31.451,23.232,58.525,43.298    c88.399,65.518,118.605,87.908,129.895,95.562v87.849C636.375,389.847,635.924,666.126,635.791,675.109z" data-original="#000000" class="active-path" data-old_color="#e73a9e" fill="#e73a9e"/>
		<path d="M142.481,161.128h352.052c4.078,0,7.389-3.31,7.389-7.388c0-4.078-3.311-7.388-7.389-7.388H142.481    c-4.079,0-7.388,3.31-7.388,7.388C135.093,157.818,138.403,161.128,142.481,161.128z" data-original="#000000" class="active-path" data-old_color="#e73a9e" fill="#e73a9e"/>
		<path d="M539.671,218.571H142.481c-4.079,0-7.388,3.31-7.388,7.388s3.31,7.388,7.388,7.388h397.189    c4.079,0,7.389-3.31,7.389-7.388S543.749,218.571,539.671,218.571z" data-original="#000000" class="active-path" data-old_color="#e73a9e" fill="#e73a9e"/>
		<path d="M539.671,293.04H142.481c-4.079,0-7.388,3.31-7.388,7.388s3.31,7.388,7.388,7.388h397.189c4.079,0,7.389-3.31,7.389-7.388    S543.749,293.04,539.671,293.04z" data-original="#000000" class="active-path" data-old_color="#e73a9e" fill="#e73a9e"/>
		<path d="M539.671,367.512H142.481c-4.079,0-7.388,3.31-7.388,7.389c0,4.078,3.31,7.388,7.388,7.388h397.189    c4.079,0,7.389-3.31,7.389-7.388C547.06,370.821,543.749,367.512,539.671,367.512z" data-original="#000000" class="active-path" data-old_color="#e73a9e" fill="#e73a9e"/>
		<path d="M539.671,441.984H142.481c-4.079,0-7.388,3.31-7.388,7.388s3.31,7.389,7.388,7.389h397.189    c4.079,0,7.389-3.311,7.389-7.389S543.749,441.984,539.671,441.984z" data-original="#000000" class="active-path" data-old_color="#e73a9e" fill="#e73a9e"/>
		<path d="M539.671,516.453H142.481c-4.079,0-7.388,3.31-7.388,7.388s3.31,7.389,7.388,7.389h397.189    c4.079,0,7.389-3.311,7.389-7.389S543.749,516.453,539.671,516.453z" data-original="#000000" class="active-path" data-old_color="#e73a9e" fill="#e73a9e"/>
		<path d="M539.671,590.926H142.481c-4.079,0-7.388,3.31-7.388,7.388s3.31,7.389,7.388,7.389h397.189    c4.079,0,7.389-3.311,7.389-7.389S543.749,590.926,539.671,590.926z" data-original="#000000" class="active-path" data-old_color="#e73a9e" fill="#e73a9e"/>
		<path d="M82.988,42.541c-4.078,0-7.388,3.31-7.388,7.388v121.864c0,4.078,3.31,7.388,7.388,7.388s7.388-3.31,7.388-7.388V49.929    C90.376,45.851,87.066,42.541,82.988,42.541z" data-original="#000000" class="active-path" data-old_color="#e73a9e" fill="#e73a9e"/>
		<path d="M82.988,293.04c-4.078,0-7.388,3.31-7.388,7.388v324.971c0,4.078,3.31,7.388,7.388,7.388s7.388-3.31,7.388-7.388V300.428    C90.376,296.35,87.066,293.04,82.988,293.04z" data-original="#000000" class="active-path" data-old_color="#e73a9e" fill="#e73a9e"/>
	</g>
</g></g> </svg>
