<svg xmlns="http://www.w3.org/2000/svg" width="594" height="391" viewBox="0 0 594 391">
    <defs>
        <linearGradient id="a" x1="49.908%" x2="49.908%" y1="99.985%" y2="-.006%">
            <stop offset="0%" stop-color="gray" stop-opacity=".25"/>
            <stop offset="54%" stop-color="gray" stop-opacity=".12"/>
            <stop offset="100%" stop-color="gray" stop-opacity=".1"/>
        </linearGradient>
        <linearGradient id="b" x1="50%" x2="50%" y1="100%" y2="0%">
            <stop offset="0%" stop-color="gray" stop-opacity=".25"/>
            <stop offset="54%" stop-color="gray" stop-opacity=".12"/>
            <stop offset="100%" stop-color="gray" stop-opacity=".1"/>
        </linearGradient>
        <linearGradient id="c" x1="50%" x2="50%" y1="99.972%" y2="-.028%">
            <stop offset="0%" stop-color="gray" stop-opacity=".25"/>
            <stop offset="54%" stop-color="gray" stop-opacity=".12"/>
            <stop offset="100%" stop-color="gray" stop-opacity=".1"/>
        </linearGradient>
        <linearGradient id="d" x1="50%" x2="50%" y1="-204.365%" y2="0%">
            <stop offset="0%" stop-color="gray" stop-opacity=".25"/>
            <stop offset="54%" stop-color="gray" stop-opacity=".12"/>
            <stop offset="100%" stop-color="gray" stop-opacity=".1"/>
        </linearGradient>
        <linearGradient id="e" x1="50%" x2="50%" y1="-215.638%" y2="0%">
            <stop offset="0%" stop-color="gray" stop-opacity=".25"/>
            <stop offset="54%" stop-color="gray" stop-opacity=".12"/>
            <stop offset="100%" stop-color="gray" stop-opacity=".1"/>
        </linearGradient>
        <linearGradient id="f" x1="49.999%" x2="49.999%" y1="100%" y2="0%">
            <stop offset="0%" stop-color="gray" stop-opacity=".25"/>
            <stop offset="54%" stop-color="gray" stop-opacity=".12"/>
            <stop offset="100%" stop-color="gray" stop-opacity=".1"/>
        </linearGradient>
        <linearGradient id="g" x1="49.996%" x2="49.996%" y1="100%" y2="0%">
            <stop offset="0%" stop-color="gray" stop-opacity=".25"/>
            <stop offset="54%" stop-color="gray" stop-opacity=".12"/>
            <stop offset="100%" stop-color="gray" stop-opacity=".1"/>
        </linearGradient>
        <linearGradient id="h" x1="50%" x2="50%" y1="100%" y2="0%">
            <stop offset="0%" stop-color="gray" stop-opacity=".25"/>
            <stop offset="54%" stop-color="gray" stop-opacity=".12"/>
            <stop offset="100%" stop-color="gray" stop-opacity=".1"/>
        </linearGradient>
    </defs>
    <g fill="none" fill-rule="evenodd">
        <path fill="#EF63FF" fill-rule="nonzero" d="M579.238 265.655c-.518.335-1.045.66-1.581.973a56.402 56.402 0 0 1-6.183 3.154c-11.24 4.952-25.082 7.372-38.565 9.015-30.25 3.688-61.132 4.405-91.88 5.108-83.087 1.903-166.39 3.811-249.257-.585-32.74-1.734-66.214-4.637-95.889-13.538a196.756 196.756 0 0 1-12.51-4.209c-8.267-3.108-16.212-6.897-22.812-11.411-6.226-4.236-11.24-9.102-14.249-14.635-6.27-11.52-2.95-24.461 4.21-35.759A110.796 110.796 0 0 1 60.58 190.64c5.508-6.34 11.605-12.534 17.165-18.87 19.79-22.618 32.703-51.179 14.436-74.344-5.269-6.655-12.836-12.498-17.113-19.45-5.465-8.883-5.038-18.751-3.305-28.337.225-1.21.48-2.42.714-3.615 2.989-14.215 8.568-29.506 25.743-38.402 17.86-9.221 43.225-8.755 65.4-5.478 34.484 5.13 66.295 15.844 98.423 25.525 32.127 9.682 65.768 18.519 101.1 19.487 31.194.835 67.574-5.446 88.274-21.787 20.116-15.862 57.904-17.072 85.156-7.486 18.68 6.573 32.645 18.427 38.526 31.756a36.118 36.118 0 0 1 2.568 8.271c.477 2.572.638 5.189.479 7.796a32.771 32.771 0 0 1-.48 3.826c-4.554 26.3-37.314 47.043-57.233 70.541-9.732 11.476-16.6 25.256-9.91 37.636 10.207 18.856 45.697 25.562 67.144 39.593 4.119 2.689 7.72 5.656 10.536 9.038 10.355 12.475 6.519 29.364-8.965 39.315z" opacity=".1"/>
        <ellipse cx="255.5" cy="383.5" fill="#EF63FF" fill-rule="nonzero" opacity=".1" rx="255.5" ry="7.5"/>
        <path fill="#EF63FF" fill-rule="nonzero" d="M169.629 368.025s-19.767-1.174-17.438 12.466c0 0-.468 2.413 1.757 3.509 0 0 .033-1.013 2.025-.668a9.49 9.49 0 0 0 2.15.102 4.505 4.505 0 0 0 2.623-1.069s5.559-2.26 7.719-11.208c0 0 1.598-1.948 1.533-2.45l-3.333 1.381s1.14 2.367.243 4.338c0 0-.108-4.255-.748-4.144-.131.023-1.735.82-1.735.82s1.96 4.144.468 7.133c0 0 .56-5.089-1.094-6.834l-2.338 1.349s2.291 4.269.739 7.746c0 0 .397-5.338-1.234-7.414l-2.127 1.634s2.155 4.2.841 7.087c0 0-.173-6.212-1.304-6.681 0 0-1.87 1.616-2.141 2.302 0 0 1.472 3.049.556 4.66 0 0-.561-4.144-1.02-4.144 0 0-1.87 2.74-2.047 4.605 0 0 .08-2.795 1.599-4.881-1.07.197-2.06.7-2.843 1.446 0 0 .29-1.94 3.301-2.11 0 0 1.534-2.076 1.94-2.205 0 0-2.992-.249-4.806.548 0 0 1.6-1.842 5.358-1l2.099-1.69s-3.941-.53-5.61.056c0 0 1.921-1.617 6.176-.438l2.272-1.354s-3.357-.709-5.358-.46c0 0 2.109-1.12 6.031.096l1.632-.723s-2.46-.46-3.18-.552c-.72-.092-.761-.272-.761-.272a8.657 8.657 0 0 1 4.623.507s3.488-1.276 3.432-1.488z"/>
        <ellipse cx="156" cy="385" fill="#EF63FF" fill-rule="nonzero" opacity=".1" rx="14" ry="2"/>
        <path fill="#EF63FF" fill-rule="nonzero" d="M135.76 369.014s-12.076-.662-10.642 7.014c-.15.8.283 1.595 1.075 1.972 0 0 0-.565 1.236-.372.434.064.874.083 1.313.055a2.858 2.858 0 0 0 1.606-.602s3.396-1.269 4.713-6.306c0 0 .978-1.094.938-1.38l-2.027.791s.694 1.333.147 2.441c0 0-.066-2.39-.456-2.335-.082 0-1.06.46-1.06.46s1.201 2.325.294 4.012c0 0 .345-2.863-.669-3.842l-1.454.758s1.399 2.4.451 4.357c0 0 .243-3.001-.75-4.168l-1.302.919s1.317 2.362.506 3.985c0 0-.101-3.493-.795-3.76a7.42 7.42 0 0 0-1.308 1.287s.897 1.714.34 2.62c0 0-.34-2.326-.624-2.34 0 0-1.135 1.545-1.251 2.602.055-.981.392-1.932.978-2.758a3.564 3.564 0 0 0-1.739.814s.178-1.09 2.028-1.186c0 0 .937-1.168 1.185-1.241 0 0-1.829-.138-2.934.308 0 0 .973-1.03 3.269-.561l1.287-.951s-2.407-.3-3.43.032c0 0 1.175-.92 3.775-.248l1.398-.759a14.054 14.054 0 0 0-3.278-.257s1.292-.63 3.689.055l1.013-.41s-1.52-.266-1.946-.307c-.425-.041-.46-.152-.46-.152a5.645 5.645 0 0 1 2.822.285s2.103-.712 2.063-.832z"/>
        <ellipse cx="127" cy="379.5" fill="#EF63FF" fill-rule="nonzero" opacity=".1" rx="8" ry="1.5"/>
        <path fill="#EF63FF" fill-rule="nonzero" d="M156.738 353.017s-13.161-.804-11.611 8.574a2.3 2.3 0 0 0 1.17 2.409s.024-.697 1.373-.465c.472.081.953.105 1.431.07a2.928 2.928 0 0 0 1.738-.72s3.7-1.554 5.14-7.701c0 0 1.061-1.34 1.02-1.688l-2.218.967s.754 1.628.16 2.98c0 0-.073-2.92-.499-2.854-.086 0-1.152.567-1.152.567s1.303 2.836.32 4.901c0 0 .37-3.497-.732-4.696l-1.559.93s1.523 2.934.49 5.324c0 0 .265-3.669-.82-5.115l-1.417 1.125s1.431 2.888.558 4.868c0 0-.114-4.268-.864-4.589 0 0-1.24 1.111-1.432 1.567 0 0 .983 2.097.375 3.204 0 0-.375-2.846-.681-2.86 0 0-1.235 1.888-1.372 3.176a6.947 6.947 0 0 1 1.065-3.357 3.707 3.707 0 0 0-1.893 1s.192-1.335 2.2-1.451c0 0 1.02-1.432 1.29-1.516 0 0-1.99-.172-3.202.372 0 0 1.066-1.255 3.567-.684l1.4-1.162s-2.625-.363-3.737.037c0 0 1.28-1.111 4.116-.297l1.523-.93s-2.236-.465-3.567-.312c0 0 1.404-.772 4.015.065l1.089-.497s-1.637-.326-2.118-.377c-.48-.051-.507-.19-.507-.19a5.598 5.598 0 0 1 3.077.348s2.319-.874 2.264-1.023z"/>
        <ellipse cx="146" cy="364" fill="#EF63FF" fill-rule="nonzero" opacity=".1" rx="10" ry="2"/>
        <path fill="#C8CAD7" fill-rule="nonzero" d="M367 372.429V376H256v-2.9c13.843-4.88 23.23-17.216 23.78-31.251.55-14.036-7.847-27.003-21.27-32.849h107.75c-10.027 4.38-17.437 12.837-20.158 23.01-3.695 13.84 1.897 28.42 14.092 36.743a37.049 37.049 0 0 0 6.806 3.676z"/>
        <path fill="#000" fill-rule="nonzero" d="M367 309c-10.052 4.377-17.48 12.831-20.208 23h-67.584c-2.728-10.169-10.156-18.623-20.208-23h108z" opacity=".1"/>
        <path fill="#C8CAD7" fill-rule="nonzero" d="M130 291v20.002c0 11.045 8.477 19.998 18.938 19.998h325.124c10.46 0 18.938-8.953 18.938-19.998V291H130z"/>
        <path fill="#000" fill-rule="nonzero" d="M367 372.546V376H256v-2.804a37.686 37.686 0 0 0 8.563-4.196h95.63a37.476 37.476 0 0 0 6.807 3.546z" opacity=".1"/>
        <rect width="185" height="11" x="220" y="370" fill="#C8CAD7" fill-rule="nonzero" rx="5.5"/>
        <path fill="#474157" fill-rule="nonzero" d="M493 71.123C493 61.113 484.521 53 474.062 53H148.938C138.478 53 130 61.114 130 71.123V295h363V71.123z"/>
        <path fill="#F4F4F7" fill-rule="nonzero" d="M483 78.914v192.172c0 2.365-.98 4.633-2.728 6.305-1.747 1.672-4.118 2.609-6.59 2.609H149.318c-2.472 0-4.843-.937-6.59-2.61-1.748-1.671-2.728-3.94-2.728-6.304V78.914c0-4.923 4.172-8.914 9.318-8.914h324.364c5.146 0 9.318 3.99 9.318 8.914z"/>
        <ellipse cx="311.5" cy="62" fill="#FFF" fill-rule="nonzero" rx="4.5" ry="4"/>
        <ellipse cx="311.5" cy="312" fill="#FFF" fill-rule="nonzero" rx="10.5" ry="10"/>
        <path fill="#FFF" fill-rule="nonzero" d="M483 79H140c0-2.387.98-4.676 2.726-6.364 1.747-1.688 4.116-2.636 6.587-2.636h324.37c2.47-.001 4.842.947 6.59 2.635C482.02 74.323 483 76.613 483 79z"/>
        <circle cx="148" cy="75" r="2" fill="#EDEDF4" fill-rule="nonzero"/>
        <circle cx="156" cy="75" r="2" fill="#EDEDF4" fill-rule="nonzero"/>
        <circle cx="163" cy="75" r="2" fill="#EDEDF4" fill-rule="nonzero"/>
        <path fill="#EF63FF" fill-rule="nonzero" d="M139.875 80h343v192a8 8 0 0 1-8 8h-327a8 8 0 0 1-8-8V80z" opacity=".694"/>
        <path fill="#000" fill-rule="nonzero" d="M485 322s8.47 1.789 9 3l-9-3zM480 234c.41-.373 9.821-13.05 12-11.93L480 234z" opacity=".1"/>
        <g fill-rule="nonzero" transform="translate(405 153)">
            <path fill="url(#a)" d="M96.45 203.285a17.516 17.516 0 0 0-4.006-2.11.777.777 0 0 0-.342-.085 60.88 60.88 0 0 1-8.257-6.738c.513-.4 1.033-.809 1.56-1.196-3.262-1.463-5.031-4.804-6.785-7.82-4.617-8.027-10.708-15.21-17.988-21.214-.178-.654-1.219-.52-1.776-.929a1.357 1.357 0 0 1-.394-1.308c.09-.471.312-.9.439-1.364a8.735 8.735 0 0 0-.09-3.313c-.126-1.112-.074-2.342.699-3.172.253-.275.565-.479.81-.753.52-.656.722-1.488.558-2.293a7.766 7.766 0 0 0-.565-2.328l7.93-20.46c1.851-4.77 3.717-9.644 3.903-14.73.148-4.057-.96-8.327-3.576-11.443.476-.112.952-.225 1.428-.351-3.092-3.876-3.427-9.003-3.509-13.87a171.091 171.091 0 0 0-.26-7.302c.89.373 1.801.702 2.728.985.29.092.572.176.862.253a30.517 30.517 0 0 0 6.214 1.062l-2.787-6.604a8.758 8.758 0 0 1-.863-3.102v-.204a3.015 3.015 0 0 1 0-.366 4.03 4.03 0 0 1 .209-.858c.049-.138.106-.275.17-.408.195-.399.424-.782.684-1.146.201-.281.417-.549.632-.823a11.168 11.168 0 0 0 1.933-2.975 5.22 5.22 0 0 0 .304-1.688 8.48 8.48 0 0 0-.163-1.73 16.982 16.982 0 0 0-.283-1.133c-.074-.225-.14-.457-.223-.703a1.352 1.352 0 0 0-.059-.183c-.06-.176-.126-.345-.186-.514l-.067-.169c-.067-.182-.141-.365-.215-.548l-.045-.113c-1.033-2.504-2.4-4.923-3.218-7.47a18.755 18.755 0 0 1-.535-2.11l-.09-.541c0-.155-.052-.31-.074-.457l-.067-.535c0-.169-.037-.337-.052-.506-.015-.169 0-.324 0-.493v-.935-.33-1.091c0-.232 0-.464.06-.703v-.33c0-.338.081-.704.14-1.014l.18-.914c.2-.845.302-1.708.304-2.574v-.5l-.067-.408a.666.666 0 0 1 0-.12c0-.09-.045-.182-.074-.273-.03-.092 0-.092 0-.134l-.09-.26-.044-.12-.119-.274-.045-.085a4.697 4.697 0 0 0-.17-.33 7.394 7.394 0 0 0-.744-1.062c-1.769-2.209-4.727-3.89-6.347-6.33a13.645 13.645 0 0 1-1.821-5.086c-.082-.408-.149-.816-.223-1.224-.075-.408-.142-.794-.216-1.195-.052-.246-.096-.493-.149-.704a1.258 1.258 0 0 1 0-.161l-.133-.591v-.134l-.156-.612v-.112a10.28 10.28 0 0 0-.179-.64v-.078l-.208-.703v-.042c-.074-.232-.149-.465-.23-.704-.09-.239-.171-.478-.268-.703a8.858 8.858 0 0 0-.29-.703 18.51 18.51 0 0 0-2.728-4.586c-2.475-3.004-6.295-5.163-10.279-5.015a21.36 21.36 0 0 0-6.17 1.477L35.77 9.938l1.45-.633a12.962 12.962 0 0 0-4.416.894c-1.428.584-2.409 1.855-2.564 3.32 0 .844.32 1.68.208 2.518-.186 1.406-1.531 2.32-2.23 3.552a4.32 4.32 0 0 0-.535 2.398v.33a.326.326 0 0 1 0 .085v.162a136.775 136.775 0 0 1-6.459-2.814c-3.56-1.66-7.172-3.608-9.395-6.759-.743-1.013-1.263-2.11-1.97-3.137a25.116 25.116 0 0 0-2.69-3.067L.546 0C.041.907.688 1.976 1.2 2.87c.546.943.958 1.95 1.227 2.996.14.334.14.707 0 1.041a2.187 2.187 0 0 1-.907.612C.268 8.257-.295 9.705.152 11.036c.474 1.294 1.636 2.254 3.055 2.525.47.051.933.157 1.375.316.796.38 1.175 1.238 1.74 1.892 1.048 1.182 2.72 1.632 4.288 2.019 2.446 2.673 4.995 5.24 7.433 7.913 3.716 4.051 7.5 8.166 12.338 10.909.498.281 1.011.548 1.531.795v.246a2.631 2.631 0 0 0 .238 1.786c.534.588 1.3.942 2.119.978l3.656.619c0 .443-.096.893-.178 1.336-.052.268-.111.535-.163.802l-.067.352a.113.113 0 0 1 0 .05c0 .09 0 .182-.038.28-.037.099 0 .064 0 .099v.345a2.43 2.43 0 0 0 0 .33c.127 1.365 1.108 2.483 2.03 3.517.178.19.349.387.52.584a8.131 8.131 0 0 0-1.672 3.313 10.33 10.33 0 0 0-.23 2.3c-.5.438-.882.983-1.116 1.59a7.027 7.027 0 0 0-.275 2.58v1.02a8.155 8.155 0 0 0 .625 3.587l.156.26c-.81 1.506-2.186 2.673-3.13 4.108-1.995 3.218-1.654 7.272.855 10.15.743.809 1.695 1.59 1.777 2.658-.01.486-.06.97-.149 1.45-.09 1.153.476 2.25.78 3.368a3.35 3.35 0 0 1-.297 2.814 3.889 3.889 0 0 0-.743 2.68c.267 1.449-.364 2.89-.468 4.353-.052.634 0 1.267-.06 1.9a10.611 10.611 0 0 1-.58 1.737l-.052.197c-1.338.555-2.66 1.132-3.932 1.8-.693.29-1.269.783-1.642 1.407a3.463 3.463 0 0 0-.082 1.948c.377 2.518.76 5.039 1.152 7.562-.074 0-.134-.057-.208-.085.097 1.245.186 2.49.282 3.735-.029.949.229 1.886.744 2.7.301.31.575.641.817.993.446.865-.089 1.878-.49 2.764-.402.886-.535 2.152.342 2.63a7.35 7.35 0 0 0 1.486.746c-1.092 4.22-.089 8.722.922 12.998l2.297 9.79a23 23 0 0 1 .512 4.22v.613c.112 1.945.477 3.87 1.086 5.732 1.196 3.82.052 8.44.423 12.562a36.194 36.194 0 0 0 1.264 5.93c2.609 9.776 4.928 19.37 5.827 29.428a7.854 7.854 0 0 0 3.716 2.469c-.111 1.238 0 2.644 0 3.369a5.639 5.639 0 0 1-.297 1.758c-.547 1.108-1.574 1.937-2.817 2.272-.379.12-.743.218-1.152.31l.431-.352a10.073 10.073 0 0 0-7.143 1.168 2.768 2.768 0 0 0-1.42 1.582c-.088.65.09 1.307.499 1.836 1.188 1.643 2.956 2.833 4.987 3.355a27.4 27.4 0 0 0 6.154.809l3.813.21a.943.943 0 0 0 .253 1.28c.404.286.887.455 1.39.486 1.558.218 3.14.24 4.705.064.391-.01.769-.138 1.078-.366a.646.646 0 0 0 .228-.49.646.646 0 0 0-.228-.488c.465-.012.877-.29 1.04-.703.145-.415.191-.854.134-1.287-.097-1.681-.26-4.13-1.182-5.627-.32-.567-1.005-.857-1.665-.704a58.984 58.984 0 0 1-1.055-9.059c.952-.34 1.88-.737 2.78-1.189-2.654-4.044-2.728-9.185-1.896-13.898.337-1.486.585-2.989.743-4.501.179-3.004-.297-6.422-2.066-8.912a33.147 33.147 0 0 1 8.421 7.21c3.717 4.585 6.006 10.163 10.57 13.99l1.82-1.654a76.117 76.117 0 0 1 2.743 4.734 17.111 17.111 0 0 1 1.584 3.735c.425 1.983.475 4.021.148 6.02a58.215 58.215 0 0 1-.46 3.173 8.39 8.39 0 0 1-.328 1.322.97.97 0 0 0-.104-.394c-.29-.478-1.048-.26-1.486.063a6.439 6.439 0 0 0-1.866 2.068c-.251.39-.368.845-.334 1.301a1.935 1.935 0 0 0 1.063 1.28c1.999 1.112 4.511.31 6.69-.513.592-.2 1.156-.47 1.679-.802 1.055-.703 1.672-1.948 2.743-2.658a15.416 15.416 0 0 0 1.657-1c.996-.857 1.108-2.313 1.806-3.41 1.212-1.885 3.917-2.364 4.973-4.361 1.13-2.251-.298-5.036-2.148-6.478z"/>
            <path fill="#A1616A" d="M50.12 212.114a5.311 5.311 0 0 1-.288 1.743c-.556 1.099-1.584 1.917-2.82 2.243-1.194.395-2.462.522-3.708.861a3.28 3.28 0 0 0-1.44.706c-1.053 1.008-.43 2.871.831 3.633s2.864.705 4.362.642a60.492 60.492 0 0 0 9.436-1.277c1.12-.247 2.426-.748 2.604-1.82a2.69 2.69 0 0 0-.09-1.023 57.234 57.234 0 0 1-1.201-11.126c0-.24-6.253-.395-6.84-.042-1.268.79-.77 4.197-.845 5.46zM77.599 198.872a80 80 0 0 1 2.896 4.951c1.785 2.884 2.396 6.29 1.716 9.573-.125 1.044-.28 2.101-.456 3.117-.177 1.015-.465 2.17-1.378 2.759a3.33 3.33 0 0 0 2.726.231 7.935 7.935 0 0 0 2.402-1.4c4.583-3.593 8.046-8.817 8.193-14.469a2.106 2.106 0 0 0-.25-1.274 2.564 2.564 0 0 0-.803-.7 61.024 61.024 0 0 1-9.483-7.57.875.875 0 0 0-.594-.416.912.912 0 0 0-.718.163c-1.76.84-4.7 2.038-5.437 3.936.5.247.913.63 1.186 1.1z"/>
            <path fill="#3F3D56" d="M56.21 218.238c-3.88 1.547-8.101 2.11-12.27 2.61-.51.138-1.06.042-1.484-.261a1.024 1.024 0 0 1-.097-1.188 3.26 3.26 0 0 1 .898-.943l2.79-2.208a10.096 10.096 0 0 0-7.123 1.153 2.704 2.704 0 0 0-1.417 1.562c-.088.64.09 1.288.498 1.807 1.192 1.627 2.957 2.798 4.978 3.305 2.003.5 4.063.769 6.135.801l3.79.211a.944.944 0 0 0 .253 1.266c.411.275.893.438 1.395.471 1.554.211 3.13.232 4.689.063.39-.01.767-.137 1.075-.365a.626.626 0 0 0 .227-.478.626.626 0 0 0-.227-.479c.465-.009.875-.288 1.032-.703.147-.408.195-.844.14-1.272-.103-1.653-.26-4.065-1.18-5.528-.919-1.462-2.855-.337-4.102.176zM96.035 203.658a17.63 17.63 0 0 0-3.931-2.131.478.478 0 0 0-.412-.09.464.464 0 0 0-.319.267 38.774 38.774 0 0 0-5.795 10.869c-.731 2.216-1.36 4.574-2.923 6.393-.205.234-.52.476-.804.34-.285-.134-.154-.823-.373-1.2-.22-.376-1.03-.255-1.462.071a6.334 6.334 0 0 0-1.827 2.06 2.085 2.085 0 0 0-.328 1.293c.133.553.514 1.02 1.037 1.272 1.966 1.108 4.436.312 6.577-.512a7.824 7.824 0 0 0 1.652-.795c1.03-.71 1.637-1.94 2.69-2.65.564-.297 1.108-.63 1.63-.994.978-.86 1.08-2.309 1.775-3.396 1.191-1.875 3.844-2.358 4.882-4.347 1.147-2.238-.256-5.015-2.069-6.45zM66.107 101.716c4.217 3.01 5.989 8.35 5.804 13.332-.184 4.982-2.045 9.823-3.877 14.496-2.629 6.708-5.252 13.421-7.872 20.138.303.733.492 1.504.562 2.288a2.7 2.7 0 0 1-.554 2.252c-.244.274-.554.477-.805.744a3.842 3.842 0 0 0-.694 3.123c.239 1.073.269 2.179.088 3.262-.125.456-.347.884-.435 1.348a1.29 1.29 0 0 0 .391 1.284c.554.4 1.588.273 1.765.912 7.21 5.895 13.256 12.964 17.856 20.875 1.735 2.968 3.493 6.266 6.727 7.718a117.539 117.539 0 0 0-9.068 7.585c-4.534-3.768-6.794-9.255-10.494-13.767a32.875 32.875 0 0 0-8.359-7.1c1.758 2.455 2.216 5.816 2.053 8.777a37.843 37.843 0 0 1-.738 4.428c-.827 4.638-.739 9.697 1.875 13.683-2.806 1.403-6.033 2.413-9.171 2-1.968-.263-3.754-1.232-4.992-2.709-.894-9.9-3.198-19.338-5.79-28.972a34.45 34.45 0 0 1-1.248-5.824c-.376-4.098.739-8.61-.428-12.37-.6-1.822-.96-3.708-1.07-5.614V153c-.041-1.389-.212-2.772-.51-4.132l-2.29-9.67c-.996-4.21-1.993-8.602-.915-12.791a7.854 7.854 0 0 1-1.477-.702c-.871-.477-.738-1.712-.332-2.589.406-.877.93-1.874.48-2.723a6.434 6.434 0 0 0-.813-.975 4.678 4.678 0 0 1-.738-2.66l-.28-3.676c1.62.609 2.969 1.732 3.817 3.179-2.112-3.109-1.063-7.543.487-10.933.594-2.137 2.6-3.646 4.926-3.704 8.64-1.439 19.14-4.898 26.119.09z"/>
            <path fill="#000" d="M62.476 122.406s-4.346 2.698-4.346 4.718-1.084 20.204-1.084 20.204v12.796s.758 6.737 0 8.418c-.759 1.68 0 9.427 0 10.437 0 1.01 1.084-10.437 1.084-10.437v-12.126l1.085-27.611 3.26-6.399z" opacity=".1"/>
            <path fill="#A1616A" d="M38.447 29.834l-2.464-.94c-5.016-1.928-10.047-3.864-14.916-6.125-3.533-1.646-7.111-3.575-9.317-6.698-.738-1.004-1.247-2.12-1.955-3.11-.8-1.08-1.69-2.096-2.663-3.037L.56 3.197c-.495.898.147 1.957.656 2.826.538.935.947 1.933 1.217 2.968.129.335.116.705-.037 1.032-.184.303-.575.43-.9.6C.268 11.35-.288 12.781.146 14.1c.48 1.288 1.632 2.238 3.032 2.502.465.051.92.158 1.358.318.789.367 1.165 1.222 1.733 1.872 1.033 1.173 2.693 1.618 4.242 2 2.427 2.65 4.957 5.193 7.377 7.842 3.688 4.014 7.435 8.09 12.23 10.81a18.23 18.23 0 0 0 5.533 2.12 82.356 82.356 0 0 1 2.796-11.729z"/>
            <path fill="#000" d="M38.447 29.834l-2.464-.94c-5.016-1.928-10.047-3.864-14.916-6.125-3.533-1.646-7.111-3.575-9.317-6.698-.738-1.004-1.247-2.12-1.955-3.11-.8-1.08-1.69-2.096-2.663-3.037L.56 3.197c-.495.898.147 1.957.656 2.826.538.935.947 1.933 1.217 2.968.129.335.116.705-.037 1.032-.184.303-.575.43-.9.6C.268 11.35-.288 12.781.146 14.1c.48 1.288 1.632 2.238 3.032 2.502.465.051.92.158 1.358.318.789.367 1.165 1.222 1.733 1.872 1.033 1.173 2.693 1.618 4.242 2 2.427 2.65 4.957 5.193 7.377 7.842 3.688 4.014 7.435 8.09 12.23 10.81a18.23 18.23 0 0 0 5.533 2.12 82.356 82.356 0 0 1 2.796-11.729z" opacity=".15"/>
            <path fill="#FF6F61" d="M34.145 42.733a3.071 3.071 0 0 1-2.132-.962 2.57 2.57 0 0 1-.232-1.756 47.016 47.016 0 0 1 2.693-11.24c1.212 2.107 3.599 3.33 5.858 4.44a44.19 44.19 0 0 0 6.285 2.69c-.517-.162-1.87 7.685-2.619 8.17-.95.625-3.224-.21-4.272-.386l-5.58-.956z"/>
            <ellipse cx="40.129" cy="29.916" fill="#A1616A" rx="11.294" ry="10.733"/>
            <path fill="#FBBEBE" d="M37.485 38.536s7.48 6.065 4.278 10.108c-3.2 4.042-4.996 6.742-.71 7.067 4.285.326 18.54-6.742 18.54-6.742S46.4 38.854 48.538 32.79c2.139-6.064-11.054 5.746-11.054 5.746z"/>
            <path fill="#FF6F61" d="M44.448 48.17c-3.228.732-5.743 3.114-6.503 6.157-.83 3.6.943 7.59-.742 10.924-.787 1.572-2.227 2.746-3.229 4.193-2 3.149-1.657 7.146.854 9.952.742.79 1.685 1.558 1.767 2.607-.01.469-.06.936-.149 1.397-.089 1.133.475 2.202.742 3.3.316.909.208 1.901-.297 2.732a3.771 3.771 0 0 0-.742 2.628c.267 1.397-.364 2.83-.467 4.263-.052.622 0 1.244-.06 1.866-.08.587-.211 1.167-.393 1.733l-.943 3.299a41.026 41.026 0 0 0 16.189 2.718c4.98-.09 9.887-1.062 14.756-2.026 1.484-.294 2.969-.588 4.453-.965-3.08-3.802-3.414-8.827-3.496-13.6a190.601 190.601 0 0 0-1.892-23.762c1.484-2.656 2.152-5.591 2.768-8.561.279-1.188.396-2.405.35-3.62-.157-2.565-1.389-4.942-2.606-7.248-1.106-2.096-2.316-4.312-4.788-5.214a3.976 3.976 0 0 0-3.711.378c-1.878 1.328-1.314 3.62-1.796 5.59-.631 2.53-3.11 4.355-5.76 5.096a19.98 19.98 0 0 1-6.057.53 1.067 1.067 0 0 1-.92-.614.96.96 0 0 1 .178-1.048c.883-.923 1.759-1.845 2.494-2.705z"/>
            <path fill="#A1616A" d="M53.592 89.521c-4.204 3.236-8.453 6.5-13.312 8.79-2.843 1.339-5.871 2.333-8.654 3.776a3.38 3.38 0 0 0-1.644 1.401 3.306 3.306 0 0 0-.082 1.912l1.235 7.993c.335 2.164 2.545 3.544 4.338 4.903-.2-.638-.161-1.32.112-1.933.127-.203.266-.4.416-.589a5.171 5.171 0 0 0 .596-3.754 19.466 19.466 0 0 1-.47-3.853c-.03-.442.188-.867.574-1.12 6.034-2.732 12.53-4.827 18.602-7.425a19.872 19.872 0 0 0 4.525-2.417c1.395-1.004 2.333-2.468 2.626-4.098a.812.812 0 0 0-.111-.63.951.951 0 0 0-.454-.252c-2.694-.918-5.574-1.78-8.297-2.704z"/>
            <path fill="#000" d="M41.73 55.752c-2.057.333-4.21 1.36-4.913 3.264a6.972 6.972 0 0 0-.27 2.555 8.305 8.305 0 0 0 .615 3.54c.353.622.772 1.205 1.252 1.742 4.913 6.088 7.374 13.734 12.163 19.914.424.545 1.2 1.253.959 1.897a4.228 4.228 0 0 0-.227.489c-.044.337.087.674.351.899.257.224.455.503.579.814.088.326-.132.75-.476.708.571 1.72 2.336 2.719 3.998 3.54 2.775 1.352 5.858 2.414 8.94 2.124.58-2.245 1.392-4.779 1.063-7.08a17.88 17.88 0 0 0-1.78-5.012l-2.08-4.39c-1.771-3.744-3.558-7.518-6.026-10.873a16.321 16.321 0 0 1-2.197-3.476c-.63-1.586-2.372-2.698-3.42-4.064-1.566-2.032-3.17-4.099-5.286-5.593-.872-.58-2.219-1.168-3.244-.998z" opacity=".1"/>
            <path fill="#FF6F61" d="M41.731 54.842c-2.058.333-4.21 1.36-4.913 3.264a6.957 6.957 0 0 0-.271 2.555 8.303 8.303 0 0 0 .615 3.54c.353.62.772 1.205 1.252 1.74 4.913 6.089 7.374 13.734 12.163 19.914.424.545 1.2 1.253.959 1.897a4.227 4.227 0 0 0-.227.488c-.044.338.087.674.351.9.257.223.455.502.579.813.088.326-.132.75-.476.708.571 1.72 2.336 2.718 3.998 3.54 2.775 1.352 5.858 2.413 8.941 2.123.578-2.244 1.391-4.778 1.062-7.079a17.877 17.877 0 0 0-1.78-5.011l-2.08-4.39c-1.771-3.744-3.558-7.517-6.026-10.88a16.103 16.103 0 0 1-2.197-3.468c-.63-1.586-2.372-2.697-3.42-4.063-1.566-2.032-3.17-4.099-5.286-5.593-.871-.573-2.219-1.182-3.244-.998z"/>
            <path fill="#3F3D56" d="M36.883 12.173c-1.507.04-2.995.337-4.391.877-1.414.57-2.388 1.825-2.543 3.274 0 .828.318 1.648.207 2.475-.192 1.36-1.523 2.279-2.218 3.506-1.198 2.103-.266 4.768 1.294 6.64 1.56 1.872 3.696 3.281 5.263 5.118 2.552 2.983 3.614 6.868 2.913 10.65a7.884 7.884 0 0 0-.288 2.223c.125 1.34 1.101 2.44 2.018 3.464a159.304 159.304 0 0 1 12.73 16.063 42.398 42.398 0 0 1 3.134 5.077c.917 1.823 1.605 3.772 2.883 5.385a14.659 14.659 0 0 0 4.222 3.435 30.929 30.929 0 0 0 13.52 4.137l-2.764-6.5a7.147 7.147 0 0 1-.828-3.61c.303-2.335 2.794-3.878 3.607-6.1a7.161 7.161 0 0 0-.147-4.48c-.976-3.296-2.957-6.262-3.985-9.53a18.487 18.487 0 0 1-.599-8.862c.343-1.282.49-2.605.436-3.927-.51-3.975-5.433-5.875-7.71-9.255-1.479-2.166-1.752-4.838-2.218-7.376-.74-3.702-1.989-7.397-4.435-10.349-2.447-2.952-6.247-5.07-10.217-4.908-2.11.183-4.177.675-6.128 1.459l-5.175 1.78"/>
            <g fill="#000" opacity=".1">
                <path d="M60.199 20.946c.446 2.281.744 4.674 1.867 6.71-.156-.79-.29-1.588-.446-2.372a28.482 28.482 0 0 0-1.741-5.821c.134.518.223 1.008.32 1.483zM69.782 41.482a18.292 18.292 0 0 0 .603 8.844c.256.776.554 1.54.893 2.288a17.989 17.989 0 0 1-.075-6.794c.345-1.28.493-2.599.44-3.918a5.969 5.969 0 0 0-1.407-3.03c-.082.868-.298 1.743-.454 2.61zM75.816 64.173a22.57 22.57 0 0 0-1.064-2.799c.185.981.114 1.99-.208 2.939-.811 2.218-3.326 3.757-3.631 6.087a7.07 7.07 0 0 0 .84 3.604l.559 1.301a3.613 3.613 0 0 1 0-.567c.305-2.33 2.812-3.869 3.63-6.087a7.089 7.089 0 0 0-.126-4.478zM60.92 76.355a14.73 14.73 0 0 1-4.248-3.429c-1.28-1.61-1.979-3.554-2.902-5.367a41.783 41.783 0 0 0-3.154-5.072 159.194 159.194 0 0 0-12.813-16.03l-.483-.546c-.11.46-.152.93-.127 1.4.127 1.336 1.109 2.434 2.032 3.456a159.194 159.194 0 0 1 12.812 16.03 42.25 42.25 0 0 1 3.155 5.066c.922 1.819 1.614 3.764 2.901 5.373a14.73 14.73 0 0 0 4.249 3.429c4.115 2.388 8.784 3.804 13.608 4.128l-1.875-4.373c-4.662-.372-9.167-1.764-13.154-4.065zM33.13 30.154c-1.606-1.833-3.72-3.232-5.297-5.1-.14-.175-.275-.357-.409-.54-.043 1.788.608 3.53 1.83 4.899 1.563 1.875 3.72 3.274 5.298 5.107a12.668 12.668 0 0 1 1.607 2.323c-.324-2.452-1.373-4.77-3.028-6.689z"/>
            </g>
        </g>
        <g fill-rule="nonzero" transform="translate(220.875 97)">
            <path fill="url(#b)" d="M.125 107h54v52h-54z"/>
            <path fill="#F5F5F5" d="M1.125 111h53v48h-53z"/>
            <path fill="url(#c)" d="M16.286 2.504v-2.5H6.714v2.5H.015v12.292h22.97V2.504h-6.699zM7.912.91h7.178v1.594H7.912V.91z" opacity=".5" transform="translate(16.125 116)"/>
            <path fill="#EF63FF" d="M16.125 118h19v12h-19zM21.125 115v3h1.125v-2.143H29V118h1.125v-3zM18.125 139h18v2h-18z" opacity=".6"/>
            <path fill="#BDBDBD" d="M11.125 143h32v2h-32z"/>
            <path fill="url(#d)" d="M69.125 106h54v53h-54z"/>
            <path fill="#F5F5F5" d="M69.125 111h53v48h-53z"/>
            <path fill="url(#c)" d="M16.286 2.504v-2.5H6.714v2.5H.015v12.292h22.97V2.504h-6.699zM7.912.91h7.178v1.594H7.912V.91z" opacity=".5" transform="translate(84.125 116)"/>
            <path fill="#EF63FF" d="M85.125 118h19v12h-19z" opacity=".6"/>
            <path fill="#EF63FF" d="M90.125 115v3h1.125v-2.143H98V118h1.125v-3z"/>
            <path fill="#EF63FF" d="M86.125 139h18v2h-18z" opacity=".6"/>
            <path fill="#BDBDBD" d="M79.125 143h32v2h-32z"/>
            <path fill="url(#e)" d="M134.125 110h54v49h-54z"/>
            <path fill="#F5F5F5" d="M134.125 111h53v48h-53z"/>
            <path fill="url(#c)" d="M16.286 2.504v-2.5H6.714v2.5H.015v12.292h22.97V2.504h-6.699zM7.912.91h7.178v1.594H7.912V.91z" opacity=".5" transform="translate(149.125 116)"/>
            <path fill="#EF63FF" d="M152.125 118h19v12h-19zM157.125 115v3h1.125v-2.143H165V118h1.125v-3zM153.125 139h18v2h-18z" opacity=".6"/>
            <path fill="#BDBDBD" d="M144.125 143h32v2h-32z"/>
            <path fill="url(#f)" d="M.167 0h105.668v124H.167z" opacity=".5" transform="translate(44.125)"/>
            <path fill="#FFF" d="M47.125 1h101v118h-101z"/>
            <path fill="url(#g)" d="M32.566 5.752V0h-19.15v5.752H0V34h46V5.752H32.566zM16 2h14v4H16.018L16 2z" opacity=".5" transform="translate(74.125 10)"/>
            <path fill="#EF63FF" d="M77.125 14h40v26h-40z"/>
            <path fill="#EF63FF" d="M88.125 10v6h2.251v-4.285h13.498V16h2.251v-6z"/>
            <path fill="#E0E0E0" d="M55.125 54h86v3h-86zM55.125 77h86v3h-86zM55.125 86h86v3h-86zM55.125 71h36v3h-36z"/>
            <path fill="#3AD29F" d="M113.125 71h28v3h-28z" opacity=".6"/>
            <path fill="#EF63FF" d="M86.125 98h28v3h-28z"/>
            <circle cx="9.5" cy="9.5" r="9.5" fill="url(#h)" opacity=".5" transform="translate(36.125 22)"/>
            <circle cx="46.125" cy="31" r="9" fill="#69F0AE"/>
            <path fill="#FFF" d="M41.625 29.801l3.6 3.772 5.1-8.573 1.8 1.715L45.225 37l-5.1-6.514z"/>
        </g>
        <path stroke="#535461" stroke-width="2" d="M62.656 380s16.116-56.701-3.024-98.44c-8.03-17.516-10.697-37.179-6.988-56.186A154.744 154.744 0 0 1 60.317 199"/>
        <path fill="#EF63FF" fill-rule="nonzero" d="M48 170.998C48 178.178 60 199 60 199s12-20.816 12-28.002C72 163.82 66.627 158 60 158s-12 5.82-12 12.998zM29.942 210.242C33.552 216.02 54 226 54 226s-.371-23.527-3.966-29.304c-2.324-3.74-6.389-5.905-10.662-5.68-4.274.225-8.108 2.807-10.057 6.773-1.95 3.966-1.718 8.713.606 12.453h.02zM31.582 275.34c5.907 3.066 28.418.946 28.418.946s-11.73-19.9-17.637-22.966a11.676 11.676 0 0 0-11.953.698c-3.578 2.415-5.633 6.612-5.39 11.01.241 4.398 2.743 8.33 6.562 10.312zM40.896 326.936C46.262 331.11 69 333 69 333s-8.369-22.333-13.735-26.507c-3.47-2.701-8.045-3.25-12.003-1.438-3.957 1.812-6.696 5.708-7.184 10.222-.488 4.513 1.348 8.958 4.818 11.66zM79.377 225.99C74.716 230.907 53 236 53 236s5.321-23.428 9.983-28.345c3.013-3.207 7.377-4.418 11.438-3.175 4.062 1.243 7.2 4.75 8.226 9.193 1.025 4.443-.218 9.142-3.26 12.317h-.01zM90.418 285.34c-5.907 3.066-28.418.946-28.418.946s11.73-19.9 17.637-22.966a11.676 11.676 0 0 1 11.953.698c3.578 2.415 5.633 6.612 5.39 11.01-.241 4.398-2.743 8.33-6.562 10.312zM95.014 344.954C89.666 349.116 67 351 67 351s8.342-22.268 13.69-26.43c3.456-2.754 8.05-3.341 12.032-1.536 3.98 1.805 6.733 5.723 7.206 10.259.473 4.535-1.405 8.99-4.92 11.66h.006z"/>
    </g>
</svg>
