<svg xmlns="http://www.w3.org/2000/svg" width="17" height="17" viewBox="0 0 17 17">
    <defs>
        <linearGradient id="a" x1="38.222%" y1="39.697%" y2="112.012%">
            <stop offset="0%" stop-color="#F5515F"/>
            <stop offset="100%" stop-color="#ED0D7D"/>
        </linearGradient>
    </defs>
    <path fill="url(#a)" fill-rule="evenodd" d="M16.999 8.413a8.466 8.466 0 0 0-.6-3.054c-.024-.053-.044-.11-.066-.162a8.524 8.524 0 0 0-1.595-2.464l-.131-.138A8.468 8.468 0 0 0 8.5 0C6.282 0 4.26.855 2.745 2.252a8.642 8.642 0 0 0-.971 1.06A8.454 8.454 0 0 0 0 8.5C0 13.188 3.814 17 8.5 17c3.298 0 6.16-1.888 7.57-4.638a8.39 8.39 0 0 0 .799-2.376c.085-.482.131-.979.131-1.486l-.001-.087zm-1.6-3.397l.05-.056c.064.126.124.254.182.382l-.08-.002-.152.02v-.344zm-1.23-1.484l.002-.38c.133.141.263.288.386.438l-.153.229-.535-.005-.034-.111.335-.17zM3.917 2.588v-.013h.171l.014-.059h.28v.122l-.08.105h-.385v-.155zm.273.38s.17-.03.185-.03c.013 0 0 .17 0 .17l-.384.025-.074-.087.273-.079zM15.94 6.341h-.621l-.38-.282-.399.038v.244h-.126l-.137-.097-.69-.176v-.447l-.875.068-.272.147h-.348l-.17-.02-.423.237v.44l-.861.621.071.267h.176l-.046.253-.123.046-.007.66.745.85h.326l.018-.052h.584l.168-.156h.33l.182.181.493.053-.065.654.548.966-.288.552.019.259.226.226v.624l.298.4v.519h.257a7.785 7.785 0 0 1-6.05 2.885c-4.302 0-7.8-3.5-7.8-7.802a7.77 7.77 0 0 1 .621-3.052v-.245l.28-.337c.098-.183.2-.362.311-.537l.014.142-.325.395c-.1.189-.194.382-.278.582v.443l.323.156v.618l.31.53.255.038.032-.18-.299-.462-.058-.447h.175l.073.461.432.628-.113.204.275.42.681.167v-.11l.272.04-.026.193.215.039.33.09.466.533.597.045.058.486-.408.285-.019.434-.06.266.591.74.047.252s.213.058.238.058c.026 0 .48.343.48.343v1.337l.162.044-.11.617.273.363-.05.61.359.633.462.403.464.008.045-.148-.34-.289.02-.141.06-.176.013-.178-.231-.006-.116-.145.191-.187.026-.138-.214-.061.012-.13.306-.046.464-.222.156-.285.486-.624-.111-.486.149-.26.447.014.302-.237.098-.94.332-.424.06-.272-.305-.099-.202-.33-.686-.006-.545-.206-.025-.39-.183-.317-.492-.007-.285-.448-.253-.124-.013.137-.46.027-.168-.234-.48-.097-.396.455-.622-.104-.046-.701-.454-.079.183-.343-.053-.198-.596.4-.375-.047-.134-.293.08-.302.209-.383.476-.24H5l-.003.28.331.155-.025-.48.237-.24.481-.317.034-.222.48-.5.509-.282L7 4.78l.344-.324.127.032.058.073.131-.145.033-.015-.144-.02-.146-.048v-.14l.078-.063h.169l.079.034.068.136.082-.013v-.012l.024.008.239-.035.034-.118.137.034v.128l-.127.087.019.138.432.134.002.004.098-.008.007-.188-.343-.155-.019-.09.285-.098.012-.273-.298-.181-.02-.46-.407.2h-.149l.038-.35-.555-.13-.23.173v.531l-.414.13-.165.346-.181.03v-.443l-.388-.055-.194-.126-.08-.287.696-.406.342-.104.034.229.189-.009.013-.116.199-.027.003-.041-.085-.036-.02-.121.245-.02.147-.154.008-.01h.002l.045-.047.512-.065.227.193-.594.316.754.18.1-.253h.329l.117-.22-.233-.06v-.278l-.733-.325-.505.058-.285.15.019.362-.3-.044-.045-.201.287-.26-.52-.026-.148.047-.065.174.195.032-.04.195-.33.02-.052.128-.48.014s-.011-.271-.032-.271l.376-.007.286-.28-.157-.077-.206.201-.345-.02-.206-.285h-.441l-.461.343H4.9l.039.125-.11.1.467.014.071.169-.525-.02-.026-.13-.33-.072-.175-.097-.393.003A7.755 7.755 0 0 1 8.5.7c1.974 0 3.775.737 5.15 1.948l-.092.165-.36.142-.151.164.034.193.185.026.113.28.32-.13.052.374h-.095l-.263-.04-.292.05-.282.4-.404.063-.059.344.171.041-.05.222-.4-.08-.367.08-.077.203.063.43.215.101.362-.001.244-.022.075-.195.383-.495.25.051.248-.224.046.174.61.412-.076.099-.274-.014.106.149.168.037.198-.082-.003-.239.087-.044-.07-.075-.406-.226-.108-.302h.338l.108.108.292.25.012.303.3.321.113-.439.208-.114.04.36.204.224.407-.007c.078.201.148.408.21.618l-.043.04zM4.637 3.862l.203-.098.184.045-.063.247-.2.064-.124-.258zm1.084.584v.16h-.468l-.174-.048.044-.112.224-.093h.306v.093h.068zm.213.223v.155l-.116.076-.147.027v-.258h.263zm-.131-.063v-.184l.16.145-.16.039zm.073.374v.152l-.111.11h-.25l.04-.168.118-.01.024-.059.179-.025zm-.618-.31h.258l-.33.462-.136-.074.029-.194.179-.195zm1.055.257v.152h-.247l-.068-.099v-.14h.02l.295.087zm-.229-.208l.072-.074.12.074-.096.078-.096-.078zm9.982 2.016l.026-.027.03.133-.056-.106z"/>
</svg>
