<svg xmlns="http://www.w3.org/2000/svg" width="240" height="72" viewBox="0 0 240 72">
    <g fill="none" fill-rule="evenodd">
        <rect width="240" height="72" fill="#000" fill-rule="nonzero" rx="17"/>
        <text fill="#FFF" font-family="Helvetica" font-size="14">
            <tspan x="75" y="26">ANDROID APP ON</tspan>
        </text>
        <text fill="#FFF" font-family="Helvetica" font-size="25">
            <tspan x="75" y="53">Google Play</tspan>
        </text>
        <g fill-rule="nonzero">
            <path fill="#FF9100" d="M55.29 33.556l-6.691-3.81L39.43 36.5l9.167 6.753 6.715-3.823a3.394 3.394 0 0 0 1.671-2.93c0-1.207-.624-2.303-1.694-2.944z"/>
            <path fill="#25D9F8" d="M41.748 36.5l-8.112 10.283-10.547 8.189a3.447 3.447 0 0 1-1.043-2.468V20.44c0-.96.394-1.828 1.043-2.468l10.547 8.245L41.748 36.5z"/>
            <path fill="#00C0F1" d="M41.748 36.5l-2.317 2.948v-5.896z"/>
            <path fill="#7FE881" d="M48.61 29.736L41.747 36.5 23.09 17.972c.232-.206.464-.366.719-.526a3.474 3.474 0 0 1 3.523.069l12.1 7.01 9.178 5.21z"/>
            <path fill="#5BC980" d="M48.61 29.736L41.747 36.5l-2.317-2.285v-9.69z"/>
            <path fill="#FF637B" d="M48.61 43.264l-9.18 5.21-12.122 6.978c-.556.32-1.159.502-1.785.502-.58 0-1.159-.16-1.715-.457a5.228 5.228 0 0 1-.719-.525L41.75 36.5l6.86 6.764z"/>
            <path fill="#E63950" d="M48.61 43.264l-9.18 5.21v-9.689l2.318-2.285z"/>
        </g>
    </g>
</svg>
