<svg xmlns="http://www.w3.org/2000/svg" width="42" height="42" viewBox="0 0 42 42">
    <g fill="#FFF" fill-rule="nonzero">
        <path d="M41.1 40.28h-3.603v-6.467a.819.819 0 0 0-1.637 0v6.468h-9.825V24.725a.819.819 0 0 0-.819-.818h-8.514a.819.819 0 0 0-.819.818v15.556H6.06V21.778h.315a.819.819 0 0 0 .579-.24L20.959 7.531l14.007 14.007c.153.154.362.24.579.24h.315v6.14a.819.819 0 0 0 1.637 0v-6.14H41.1a.819.819 0 0 0 .58-1.398L21.538.24a.819.819 0 0 0-1.159 0l-7.696 7.696a.819.819 0 0 0 1.158 1.158l7.117-7.117L39.123 20.14h-3.24L21.539 5.795a.819.819 0 0 0-1.158 0L6.034 20.14H2.795l6.462-6.462A.819.819 0 0 0 8.1 12.521L.24 20.38a.819.819 0 0 0 .58 1.397H4.42V40.28H.82a.819.819 0 0 0 0 1.637H41.099a.819.819 0 0 0 0-1.637zm-16.702 0H17.52V25.545h6.877v14.737z"/>
        <path d="M33.24 23.907h-4.585a.819.819 0 0 0-.819.818v8.187c0 .453.367.82.82.82h4.584a.819.819 0 0 0 .819-.82v-8.187a.819.819 0 0 0-.82-.818zm-.819 8.187h-2.947v-6.55h2.947v6.55zM13.263 23.907H8.678a.819.819 0 0 0-.818.818v8.187c0 .453.366.82.818.82h4.585a.819.819 0 0 0 .819-.82v-8.187a.819.819 0 0 0-.819-.818zm-.818 8.187H9.497v-6.55h2.948v6.55zM20.96 13.453a3.77 3.77 0 0 0-3.767 3.766 3.77 3.77 0 0 0 3.766 3.766 3.77 3.77 0 0 0 3.766-3.766 3.77 3.77 0 0 0-3.766-3.766zm0 5.895a2.131 2.131 0 0 1-2.13-2.129c0-1.173.955-2.128 2.13-2.128 1.173 0 2.128.955 2.128 2.128a2.131 2.131 0 0 1-2.129 2.129zM19.982 32.334a.825.825 0 0 0-.578-.24.825.825 0 0 0-.58.24.825.825 0 0 0-.24.578c0 .216.088.427.24.58.153.152.364.24.58.24a.825.825 0 0 0 .578-.24.825.825 0 0 0 .24-.58.825.825 0 0 0-.24-.578zM11.468 10.31a.825.825 0 0 0-.579-.24.825.825 0 0 0-.579.24.825.825 0 0 0-.24.58c0 .214.088.426.24.578.153.152.364.24.579.24a.825.825 0 0 0 .579-.24.825.825 0 0 0 .24-.579.825.825 0 0 0-.24-.579zM37.257 30.068a.825.825 0 0 0-.579-.24.825.825 0 0 0-.578.24.826.826 0 0 0-.24.579c0 .215.087.427.24.58a.824.824 0 0 0 1.157 0 .827.827 0 0 0 .24-.58.825.825 0 0 0-.24-.579z"/>
    </g>
</svg>
