<svg xmlns="http://www.w3.org/2000/svg" width="240" height="72" viewBox="0 0 240 72">
    <g fill="none" fill-rule="evenodd">
        <rect width="240" height="72" fill="#000" fill-rule="nonzero" rx="17"/>
        <text fill="#FFF" font-family="Helvetica" font-size="14">
            <tspan x="75" y="26">iOS APP ON</tspan>
        </text>
        <text fill="#FFF" font-family="Helvetica" font-size="25">
            <tspan x="75" y="53">App Store</tspan>
        </text>
        <g fill="#FFF" fill-rule="nonzero">
            <path d="M23.916 30.807c-3.596 6.308-1.31 15.881 2.666 21.686C28.567 55.395 30.576 58 33.328 58l.157-.003c1.293-.052 2.228-.455 3.131-.844 1.014-.437 2.064-.889 3.709-.889 1.565 0 2.564.438 3.53.86.952.417 1.933.848 3.382.82 3.1-.058 5.004-2.87 6.683-5.349a23.827 23.827 0 0 0 2.928-6.064l.012-.038a.354.354 0 0 0-.185-.432c-.005-.002-.021-.01-.026-.011-.546-.226-5.334-2.374-5.385-8.228-.046-4.756 3.593-7.275 4.323-7.731l.034-.022a.352.352 0 0 0 .099-.495c-2.512-3.716-6.362-4.277-7.912-4.344a6.903 6.903 0 0 0-.69-.034c-1.821 0-3.565.695-4.966 1.254-.967.385-1.803.718-2.379.718-.647 0-1.488-.337-2.46-.727-1.301-.522-2.776-1.114-4.337-1.114l-.11.001c-3.63.054-7.06 2.154-8.95 5.479z"/>
            <path d="M47.81 15c-2.197.09-4.834 1.459-6.41 3.325-1.34 1.569-2.648 4.184-2.303 6.82a.35.35 0 0 0 .319.306c.148.012.3.017.45.018 2.15 0 4.468-1.203 6.051-3.138 1.667-2.044 2.51-4.667 2.255-7.017A.352.352 0 0 0 47.81 15z"/>
        </g>
    </g>
</svg>
