<svg xmlns="http://www.w3.org/2000/svg" width="466" height="291" viewBox="0 0 466 291">
    <defs>
        <linearGradient id="a" x1="50%" x2="50%" y1="100%" y2="0%">
            <stop offset="0%" stop-color="gray" stop-opacity=".25"/>
            <stop offset="54%" stop-color="gray" stop-opacity=".12"/>
            <stop offset="100%" stop-color="gray" stop-opacity=".1"/>
        </linearGradient>
        <linearGradient id="b" x1="50%" x2="50%" y1="100%" y2="0%">
            <stop offset="0%" stop-color="gray" stop-opacity=".25"/>
            <stop offset="54%" stop-color="gray" stop-opacity=".12"/>
            <stop offset="100%" stop-color="gray" stop-opacity=".1"/>
        </linearGradient>
        <linearGradient id="c" x1="50%" x2="50%" y1="100%" y2="0%">
            <stop offset="0%" stop-color="gray" stop-opacity=".25"/>
            <stop offset="54%" stop-color="gray" stop-opacity=".12"/>
            <stop offset="100%" stop-color="gray" stop-opacity=".1"/>
        </linearGradient>
        <linearGradient id="d" x1="50%" x2="50%" y1="100%" y2="0%">
            <stop offset="0%" stop-color="#B3B3B3" stop-opacity=".25"/>
            <stop offset="54%" stop-color="#B3B3B3" stop-opacity=".1"/>
            <stop offset="100%" stop-color="#B3B3B3" stop-opacity=".05"/>
        </linearGradient>
        <linearGradient id="e" x1="53.304%" x2="48.241%" y1="94.796%" y2="2.716%">
            <stop offset="0%" stop-opacity=".12"/>
            <stop offset="55%" stop-opacity=".09"/>
            <stop offset="100%" stop-opacity=".02"/>
        </linearGradient>
    </defs>
    <g fill="none" fill-rule="evenodd">
        <path fill="#EF63FF" fill-rule="nonzero" d="M453.515 270.655a45.426 45.426 0 0 1-6.566 4.126c-9.507 4.953-21.213 7.373-32.616 9.016-25.583 3.688-51.701 4.405-77.706 5.108-70.27 1.903-140.722 3.811-210.805-.585-27.69-1.734-56-4.637-81.097-13.538a149.377 149.377 0 0 1-10.58-4.209c-6.992-3.108-13.711-6.897-19.293-11.411-5.266-4.236-9.507-9.102-12.05-14.635-5.303-11.52-2.496-24.461 3.56-35.759a110.847 110.847 0 0 1 8.506-13.128c4.658-6.34 9.815-12.534 14.517-18.87 16.737-22.618 27.658-51.179 12.209-74.344-4.456-6.655-10.856-12.498-14.473-19.45-4.622-8.883-4.261-18.751-2.795-28.337.19-1.21.405-2.42.604-3.615 2.527-14.215 7.246-29.506 21.772-38.402 15.104-9.221 36.556-8.755 55.31-5.478 29.165 5.13 56.069 15.844 83.24 25.525 27.172 9.682 55.623 18.519 85.504 19.487 26.382.835 57.15-5.446 74.657-21.787 17.012-15.862 48.971-17.072 72.02-7.486 15.797 6.573 27.608 18.427 32.582 31.756a41.077 41.077 0 0 1 2.171 8.271c.404 2.572.54 5.189.405 7.796a38.484 38.484 0 0 1-.405 3.826c-3.852 26.3-31.558 47.043-48.404 70.541-8.231 11.476-14.04 25.256-8.381 37.636 8.632 18.856 38.647 25.562 56.785 39.593 3.484 2.689 6.53 5.656 8.912 9.038 8.757 12.475 5.512 29.364-7.583 39.315z" opacity=".1"/>
        <path stroke="#535461" stroke-width="2" d="M140.582 147.932s-22.042-37.123-55.258-47.816c-13.939-4.49-26.105-12.933-34.423-24.472A106.823 106.823 0 0 1 40.743 58.28"/>
        <path fill="#EF63FF" fill-rule="nonzero" d="M19.856 51.417c3.785 3.489 21.409 7.1 21.409 7.1s-4.313-16.635-8.108-20.124c-3.796-3.416-9.777-3.296-13.418.27-3.642 3.565-3.59 9.25.117 12.754zM29.827 81.514c5.17.974 22.042-5.096 22.042-5.096S38.73 64.688 33.555 63.713c-5.116-.856-10.013 2.33-11.023 7.173-1.01 4.843 2.237 9.564 7.31 10.628h-.015zM66.124 114.083c4.984-1.64 16.292-14.969 16.292-14.969s-17.576-3.82-22.555-2.18c-3.326.981-5.825 3.606-6.523 6.849-.697 3.243.518 6.59 3.172 8.733 2.654 2.144 6.325 2.744 9.58 1.567h.034zM99.431 132.863c5.204-.815 18.735-12.131 18.735-12.131s-16.622-6.608-21.845-5.793c-5.208.816-8.734 5.49-7.875 10.44.859 4.95 5.777 8.3 10.985 7.484zM66.565 63.421c0 5.01-9.535 19.546-9.535 19.546S47.475 68.44 47.47 63.43c-.077-3.29 1.725-6.363 4.711-8.03a9.982 9.982 0 0 1 9.673 0c2.986 1.667 4.789 4.74 4.711 8.03v-.01zM105.21 85.835c-1.577 4.782-15.257 15.939-15.257 15.939s-4.542-16.58-2.97-21.362c1.738-4.57 6.957-7.028 11.836-5.574 4.88 1.453 7.689 6.302 6.372 10.997h.019zM139.633 112.521c-.714 4.964-12.214 18.16-12.214 18.16s-7.427-15.61-6.708-20.578c.407-3.253 2.626-6.045 5.807-7.306 3.182-1.26 6.83-.794 9.549 1.22 2.718 2.015 4.082 5.265 3.57 8.504h-.004z"/>
        <path fill="#000" fill-rule="nonzero" d="M19.856 51.417c3.785 3.489 21.409 7.1 21.409 7.1s-4.313-16.635-8.108-20.124c-3.796-3.416-9.777-3.296-13.418.27-3.642 3.565-3.59 9.25.117 12.754zM29.827 81.514c5.17.974 22.042-5.096 22.042-5.096S38.73 64.688 33.555 63.713c-5.116-.856-10.013 2.33-11.023 7.173-1.01 4.843 2.237 9.564 7.31 10.628h-.015zM66.124 114.083c4.984-1.64 16.292-14.969 16.292-14.969s-17.576-3.82-22.555-2.18c-3.326.981-5.825 3.606-6.523 6.849-.697 3.243.518 6.59 3.172 8.733 2.654 2.144 6.325 2.744 9.58 1.567h.034zM99.431 132.863c5.204-.815 18.735-12.131 18.735-12.131s-16.622-6.608-21.845-5.793c-5.208.816-8.734 5.49-7.875 10.44.859 4.95 5.777 8.3 10.985 7.484zM66.565 63.421c0 5.01-9.535 19.546-9.535 19.546S47.475 68.44 47.47 63.43c-.077-3.29 1.725-6.363 4.711-8.03a9.982 9.982 0 0 1 9.673 0c2.986 1.667 4.789 4.74 4.711 8.03v-.01zM105.21 85.835c-1.577 4.782-15.257 15.939-15.257 15.939s-4.542-16.58-2.97-21.362c1.738-4.57 6.957-7.028 11.836-5.574 4.88 1.453 7.689 6.302 6.372 10.997h.019zM139.633 112.521c-.714 4.964-12.214 18.16-12.214 18.16s-7.427-15.61-6.708-20.578c.407-3.253 2.626-6.045 5.807-7.306 3.182-1.26 6.83-.794 9.549 1.22 2.718 2.015 4.082 5.265 3.57 8.504h-.004z" opacity=".25"/>
        <path stroke="#535461" stroke-width="2" d="M139.312 147.194s-4.312-42.428-30.13-64.997c-10.824-9.472-18.347-21.881-21.035-35.63a103.272 103.272 0 0 1-1.879-19.786"/>
        <path fill="#EF63FF" fill-rule="nonzero" d="M70.096 12.468c1.975 4.645 16.546 14.746 16.546 14.746s3.139-16.85 1.17-21.517C85.84 1.044 80.271-1.21 75.376.665c-4.896 1.874-7.266 7.164-5.295 11.817l.014-.014zM66.378 43.822c4.313 2.882 22.315 3.825 22.315 3.825s-7.015-15.784-11.328-18.67c-4.313-2.804-10.195-1.793-13.202 2.27-3.006 4.06-2.019 9.665 2.215 12.575zM85.679 87.575c5.27.419 21.294-7.405 21.294-7.405S92.536 69.91 87.28 69.492c-3.442-.349-6.814 1.101-8.811 3.789-1.998 2.688-2.308 6.192-.81 9.16 1.496 2.966 4.565 4.93 8.021 5.134zM108.123 117.553c5.108 1.261 22.305-3.875 22.305-3.875s-12.405-12.432-17.508-13.69c-5.104-1.257-10.314 1.656-11.637 6.506-1.323 4.85 1.741 9.801 6.845 11.059h-.005zM107.668 41.422c-2.132 4.586-17.054 14.199-17.054 14.199s-2.54-16.963-.407-21.545c2.206-4.467 7.763-6.44 12.51-4.443 4.749 1.997 6.948 7.234 4.95 11.789zM133.452 76.8c-3.479 3.767-20.743 8.698-20.743 8.698s2.913-16.908 6.397-20.674c2.227-2.517 5.713-3.691 9.111-3.07 3.399.621 6.177 2.941 7.264 6.064 1.086 3.122.31 6.559-2.03 8.983zM153.548 114.456c-2.76 4.272-18.898 11.904-18.898 11.904s-.134-17.131 2.626-21.403c2.76-4.275 8.644-5.615 13.143-2.992 4.499 2.623 5.908 8.216 3.148 12.491h-.019z"/>
        <g fill="#EF63FF" fill-rule="nonzero" transform="translate(367 212)">
            <path d="M50.629 15.025S30.862 13.851 33.19 27.491c0 0-.468 2.413 1.757 3.509 0 0 .033-1.013 2.025-.668a9.49 9.49 0 0 0 2.15.102 4.505 4.505 0 0 0 2.623-1.069s5.559-2.26 7.719-11.208c0 0 1.598-1.948 1.533-2.45l-3.333 1.381s1.14 2.367.243 4.338c0 0-.108-4.255-.748-4.144-.131.023-1.735.82-1.735.82s1.96 4.144.468 7.133c0 0 .56-5.089-1.094-6.834L42.46 19.75s2.291 4.269.739 7.746c0 0 .397-5.338-1.234-7.414l-2.127 1.634s2.155 4.2.841 7.087c0 0-.173-6.212-1.304-6.681 0 0-1.87 1.616-2.141 2.302 0 0 1.472 3.049.556 4.66 0 0-.561-4.144-1.02-4.144 0 0-1.87 2.74-2.047 4.605 0 0 .08-2.795 1.599-4.881-1.07.197-2.06.7-2.843 1.446 0 0 .29-1.94 3.301-2.11 0 0 1.534-2.076 1.94-2.205 0 0-2.992-.249-4.806.548 0 0 1.6-1.842 5.358-1l2.099-1.69s-3.941-.53-5.61.056c0 0 1.921-1.617 6.176-.438l2.272-1.354s-3.357-.709-5.358-.46c0 0 2.109-1.12 6.031.096l1.632-.723s-2.46-.46-3.18-.552c-.72-.092-.761-.272-.761-.272a8.657 8.657 0 0 1 4.623.507s3.488-1.276 3.432-1.488z"/>
            <ellipse cx="37" cy="32" opacity=".1" rx="14" ry="2"/>
            <path d="M16.76 16.014s-12.076-.662-10.642 7.014c-.15.8.283 1.595 1.075 1.972 0 0 0-.565 1.236-.372.434.064.874.083 1.313.055a2.858 2.858 0 0 0 1.606-.602s3.396-1.269 4.713-6.306c0 0 .978-1.094.938-1.38l-2.027.791s.694 1.333.147 2.441c0 0-.066-2.39-.456-2.335-.082 0-1.06.46-1.06.46s1.201 2.325.294 4.012c0 0 .345-2.863-.669-3.842l-1.454.758s1.399 2.4.451 4.357c0 0 .243-3.001-.75-4.168l-1.302.919s1.317 2.362.506 3.985c0 0-.101-3.493-.795-3.76A7.42 7.42 0 0 0 8.576 21.3s.897 1.714.34 2.62c0 0-.34-2.326-.624-2.34 0 0-1.135 1.545-1.251 2.602.055-.981.392-1.932.978-2.758a3.564 3.564 0 0 0-1.739.814s.178-1.09 2.028-1.186c0 0 .937-1.168 1.185-1.241 0 0-1.829-.138-2.934.308 0 0 .973-1.03 3.269-.561l1.287-.951s-2.407-.3-3.43.032c0 0 1.175-.92 3.775-.248l1.398-.759a14.054 14.054 0 0 0-3.278-.257s1.292-.63 3.689.055l1.013-.41s-1.52-.266-1.946-.307c-.425-.041-.46-.152-.46-.152a5.645 5.645 0 0 1 2.822.285s2.103-.712 2.063-.832z"/>
            <ellipse cx="8" cy="26.5" opacity=".1" rx="8" ry="1.5"/>
            <path d="M37.738.017S24.577-.787 26.127 8.591A2.3 2.3 0 0 0 27.297 11s.024-.697 1.373-.465c.472.081.953.105 1.431.07a2.928 2.928 0 0 0 1.738-.72s3.7-1.554 5.14-7.701c0 0 1.061-1.34 1.02-1.688l-2.218.967s.754 1.628.16 2.98c0 0-.073-2.92-.499-2.854-.086 0-1.152.567-1.152.567s1.303 2.836.32 4.901c0 0 .37-3.497-.732-4.696l-1.559.93s1.523 2.934.49 5.324c0 0 .265-3.669-.82-5.115l-1.417 1.125s1.431 2.888.558 4.868c0 0-.114-4.268-.864-4.589 0 0-1.24 1.111-1.432 1.567 0 0 .983 2.097.375 3.204 0 0-.375-2.846-.681-2.86 0 0-1.235 1.888-1.372 3.176a6.947 6.947 0 0 1 1.065-3.357 3.707 3.707 0 0 0-1.893 1s.192-1.335 2.2-1.451c0 0 1.02-1.432 1.29-1.516 0 0-1.99-.172-3.202.372 0 0 1.066-1.255 3.567-.684l1.4-1.162s-2.625-.363-3.737.037c0 0 1.28-1.111 4.116-.297l1.523-.93s-2.236-.465-3.567-.312c0 0 1.404-.772 4.015.065l1.089-.497S33.385.933 32.904.882c-.48-.051-.507-.19-.507-.19a5.598 5.598 0 0 1 3.077.348S37.793.166 37.738.017z"/>
            <ellipse cx="27" cy="11" opacity=".1" rx="10" ry="2"/>
        </g>
        <path fill="url(#a)" fill-rule="nonzero" d="M116 38h183v226H116z"/>
        <path fill="#F5F5F5" fill-rule="nonzero" d="M118 41h178v219H118z"/>
        <path fill="#EF63FF" fill-rule="nonzero" d="M118 41h178v27H118z"/>
        <path fill="#FFF" fill-rule="nonzero" d="M123 44h14v3h-14zM123 50h14v3h-14zM123 57h14v3h-14z"/>
        <path fill="url(#b)" fill-rule="nonzero" d="M109 72h197v73H109z"/>
        <path fill="#FFF" fill-rule="nonzero" d="M110 75h193v68H110z"/>
        <path fill="#BDBDBD" fill-rule="nonzero" d="M152 100h48v3h-48z"/>
        <path fill="#69F0AE" fill-rule="nonzero" d="M152 114h48v3h-48z"/>
        <path fill="#E0E0E0" fill-rule="nonzero" d="M152 107h140v3H152z"/>
        <ellipse cx="131.5" cy="109" fill="#69F0AE" fill-rule="nonzero" rx="8.5" ry="8"/>
        <path fill="url(#c)" fill-rule="nonzero" d="M177 14h179v236H177z"/>
        <path fill="url(#d)" fill-rule="nonzero" d="M176 14h180v90H176z"/>
        <path fill="#FFF" fill-rule="nonzero" d="M179 16h175v230H179z"/>
        <path fill="#EF63FF" fill-rule="nonzero" d="M179 16h175v98H179z"/>
        <path fill="#BDBDBD" fill-rule="nonzero" d="M215 128h48v4h-48z"/>
        <path fill="#F5F5F5" fill-rule="nonzero" d="M215 143h48v4h-48z"/>
        <path fill="#E0E0E0" fill-rule="nonzero" d="M215 135h124v4H215z"/>
        <g fill-rule="nonzero" transform="translate(194 23)">
            <path fill="#FFF" d="M61 15h48v4H61zM61 24h77v4H61z"/>
            <rect width="48" height="4" x="75" y="34" fill="#000" opacity=".2" rx="2"/>
            <path fill="url(#e)" d="M.001 25.15c.152 11.745 9.214 21.516 21.077 22.726 11.864 1.21 22.766-6.526 25.357-17.991C49.027 18.419 42.485 6.86 31.221 3l.074 5.95c.039 4.325-3.475 7.87-7.866 7.935-4.39.039-7.99-3.421-8.056-7.746l-.074-5.95C6.009 6.601-.109 15.385.001 25.15z"/>
            <path fill="#EF63FF" d="M47 23.164c-.013-11.77-8.96-21.663-20.809-23.01C14.342-1.193 3.351 6.433.625 17.89-2.1 29.35 4.307 41.005 15.525 45v-5.963c.003-4.347 3.571-7.871 7.977-7.877 4.392.013 7.95 3.523 7.962 7.858v5.962C40.781 41.661 46.994 32.94 47 23.164z"/>
            <circle cx="24" cy="20" r="9" fill="#FFF" stroke="#FFF"/>
            <path fill="#FFF" stroke="#FFF" d="M24.002 31c-4.414.013-7.989 3.48-8.002 7.762v5.89a24.406 24.406 0 0 0 16 0v-5.89c-.013-4.28-3.586-7.748-7.998-7.762zM14.962 19.444a8.903 8.903 0 0 1-.946-4.562 6.132 6.132 0 0 1 1.991-4.135c1.3-1.124 3.066-1.525 4.772-1.663 1.705-.138 3.43-.054 5.11-.39A10.679 10.679 0 0 0 32.71 4c.107 1.347.216 2.694-.036 3.99-.252 1.296-.916 2.596-2.038 3.296 1.358-.636 1.208.855.916 1.751.664.825 2.323.96 2.39 2.02a6.8 6.8 0 0 1-.332 3.152c-.412.983.03 2.717-1.02 2.791"/>
            <path fill="#FFF" d="M31 11s5.517.556 1.588 10"/>
        </g>
        <circle cx="195.5" cy="132.5" r="8.5" fill="#E0E0E0" fill-rule="nonzero"/>
        <path fill="#BDBDBD" fill-rule="nonzero" d="M215 163h48v4h-48z"/>
        <path fill="#F5F5F5" fill-rule="nonzero" d="M215 178h48v4h-48z"/>
        <path fill="#E0E0E0" fill-rule="nonzero" d="M215 170h124v4H215z"/>
        <circle cx="195.5" cy="167.5" r="8.5" fill="#E0E0E0" fill-rule="nonzero"/>
        <path fill="#BDBDBD" fill-rule="nonzero" d="M215 198h48v4h-48z"/>
        <path fill="#F5F5F5" fill-rule="nonzero" d="M215 213h48v4h-48z"/>
        <path fill="#E0E0E0" fill-rule="nonzero" d="M215 206h124v4H215z"/>
        <circle cx="195.5" cy="202.5" r="8.5" fill="#E0E0E0" fill-rule="nonzero"/>
        <path fill="#5A5773" fill-rule="nonzero" d="M336 83.498c.005 1.929-2.09 3.495-4.68 3.5H210.842c-1.712.039-3.317-.62-4.189-1.718-.87-1.098-.87-2.462 0-3.56.872-1.098 2.477-1.757 4.189-1.718H331.32c2.587.006 4.68 1.57 4.68 3.496z" opacity=".2"/>
        <path fill="#69F0AE" fill-rule="nonzero" d="M312 80.002v6.996H210.85c-1.715.039-3.323-.62-4.195-1.718-.873-1.098-.873-2.462 0-3.56.872-1.098 2.48-1.757 4.195-1.718H312z"/>
        <text fill="#FFF" font-family="Helvetica" font-size="8">
            <tspan x="207" y="101">30% of your profile is incomplete.</tspan>
        </text>
        <path stroke="#000" stroke-width=".2" d="M235.698 80v7M274.5 80v7M312 80v7"/>
    </g>
</svg>
