<svg xmlns="http://www.w3.org/2000/svg" width="25" height="23" viewBox="0 0 25 23">
    <path fill="#000" fill-rule="evenodd" d="M25 14.14V23h-5.299v-8.266c0-2.076-.766-3.493-2.683-3.493-1.465 0-2.335.954-2.719 1.879-.14.33-.176.789-.176 1.252V23h-5.3s.072-14 0-15.45h5.3v2.19c-.01.016-.025.033-.034.05h.034v-.05c.705-1.05 1.961-2.553 4.776-2.553C22.386 7.188 25 9.396 25 14.14zM2.959 0C1.169 0 0 1.242 0 2.874 0 4.472 1.137 5.75 2.89 5.75h.035c1.823 0 2.957-1.278 2.957-2.876C5.848 1.242 4.748 0 2.96 0zM0 23h5.882V7.187H0V23z"/>
</svg>
