<svg xmlns="http://www.w3.org/2000/svg" x="0px" y="0px"
     width="100" height="100"
     viewBox="0 0 50 50">
  <g id="surface1">
    <path fill="#606060"
          d="M 0.90625 -0.03125 C 0.863281 -0.0234375 0.820313 -0.0117188 0.78125 0 C 0.40625 0.0664063 0.105469 0.339844 0 0.703125 C -0.105469 1.070313 0.00390625 1.460938 0.28125 1.71875 L 48.28125 49.71875 C 48.679688 50.117188 49.320313 50.117188 49.71875 49.71875 C 50.117188 49.320313 50.117188 48.679688 49.71875 48.28125 L 37 35.5625 L 37 14 C 37 11.199219 34.800781 9 32 9 L 10.4375 9 L 1.71875 0.28125 C 1.511719 0.0585938 1.210938 -0.0546875 0.90625 -0.03125 Z M 5 9 C 2.300781 9 0 11.300781 0 14 L 0 36 C 0 38.800781 2.199219 41 5 41 L 32 41 C 33.398438 41 34.601563 40.394531 35.5 39.59375 Z M 50 12.3125 L 39 18.25 L 39 31.75 L 50 37.6875 Z ">

    </path>
  </g>
</svg>
