<svg xmlns="http://www.w3.org/2000/svg" width="120" height="97" viewBox="0 0 120 97">
    <g fill="none" fill-rule="nonzero">
        <g fill="#606060" opacity=".5">
            <path d="M77.92 18H8.381C3.754 18.005.005 21.132 0 24.992v46.016c.005 3.86 3.754 6.987 8.381 6.992h69.54c4.625-.005 8.375-3.132 8.38-6.992V24.992c-.005-3.86-3.755-6.987-8.38-6.992zM92.055 57.882L120 70.987V25.792L92.055 38.897z"/>
        </g>
        <path fill="#B0B0B0" d="M93.984 3.515L21.186 90.27c-2.085 2.485-2.918 5.22-1.86 6.107 1.057.887 3.605-.408 5.69-2.893L97.815 6.729c2.085-2.485 2.918-5.22 1.86-6.107-1.057-.888-3.605.408-5.69 2.893z" opacity=".25"/>
    </g>
</svg>
