<svg xmlns="http://www.w3.org/2000/svg" xmlns:xlink="http://www.w3.org/1999/xlink" style="isolation:isolate"
     viewBox="0 0 100 100" width="100" height="100">
  <path
    d=" M 40.881 41.711 L 40.871 12.228 L 32.52 20.586 L 11.93 0 L 0 11.93 L 20.59 32.516 L 11.393 41.719 L 40.881 41.711 Z  M 40.881 57.291 L 11.393 57.283 L 20.59 66.484 L 0 87.071 L 11.93 99 L 32.52 78.414 L 40.871 86.772 L 40.881 57.291 Z  M 58.119 57.291 L 58.129 86.772 L 66.48 78.414 L 87.071 99 L 99 87.071 L 78.41 66.484 L 87.605 57.283 L 58.119 57.291 Z  M 58.129 12.228 L 58.119 41.709 L 87.605 41.717 L 78.41 32.516 L 99 11.93 L 87.071 0 L 66.48 20.588 L 58.129 12.228 Z "
    fill-rule="evenodd" fill="#ffffff"/>
</svg>
