<svg xmlns="http://www.w3.org/2000/svg" width="25" height="30" viewBox="0 0 25 30">
    <g fill="#2E2A43" fill-rule="nonzero">
        <path d="M24.95 25.304l-2.146-3.578a10.627 10.627 0 0 1-1.515-5.467v-3.134c0-3.956-2.64-7.302-6.25-8.381V2.5c0-1.379-1.122-2.5-2.5-2.5a2.503 2.503 0 0 0-2.5 2.5v2.244c-3.61 1.079-6.25 4.425-6.25 8.381v3.134c0 1.925-.524 3.815-1.514 5.466L.129 25.303a.624.624 0 0 0 .535.947h23.75a.627.627 0 0 0 .536-.946zM8.602 27.5C9.307 28.973 10.8 30 12.54 30c1.738 0 3.23-1.027 3.936-2.5H8.602z"/>
    </g>
</svg>
