<svg xmlns="http://www.w3.org/2000/svg" xmlns:xlink="http://www.w3.org/1999/xlink" style="isolation:isolate"
     viewBox="288 245.956 90 89.998" width="100" height="100">
  <path
    d=" M 354.252 288.343 L 325.337 270.962 C 324.137 270.24 323.247 270.044 322.265 270.6 C 321.282 271.157 320.992 272.02 320.992 273.42 L 320.992 308.49 C 320.992 309.89 321.282 310.754 322.265 311.31 C 323.247 311.866 324.137 311.669 325.337 310.948 L 354.252 293.567 C 355.452 292.845 356.052 292.137 356.052 290.955 C 356.052 289.773 355.452 289.064 354.252 288.343 Z "
    fill="rgb(231,58,158)"/>
  <path
    d=" M 333 245.956 C 308.147 245.956 288 266.102 288 290.955 C 288 315.808 308.147 335.954 333 335.954 C 357.853 335.954 378 315.808 378 290.955 C 378 266.102 357.854 245.956 333 245.956 Z  M 333 328.349 C 312.38 328.349 295.605 311.575 295.605 290.955 C 295.605 270.335 312.381 253.561 333 253.561 C 353.619 253.561 370.395 270.336 370.395 290.955 C 370.395 311.574 353.62 328.349 333 328.349 Z "
    fill="rgb(231,58,158)"/>
</svg>
