<svg xmlns="http://www.w3.org/2000/svg" xmlns:xlink="http://www.w3.org/1999/xlink" style="isolation:isolate" viewBox="0 0 100 100" width="100" height="100">
  <path d=" M 50 3 C 76.212 3 97 24.24 97 50 C 97 76.212 76.212 97 50 97 C 24.24 97 3 76.212 3 50 C 3 24.24 24.24 3 50 3 Z  M 69.433 49.096 L 40.962 31.923 C 40.058 31.471 39.154 31.923 39.154 32.827 L 39.154 67.173 C 39.154 68.077 40.058 68.529 40.962 68.077 L 69.433 50.904 C 70.337 50.452 70.337 49.548 69.433 49.096 Z " fill-rule="evenodd" fill="rgb(231,58,158)"/>
  <path d=" M 69.647 51.709 L 55.5 60.248 L 41.353 68.787 C 40.054 69.571 39 68.976 39 67.459 L 39 50.289 L 39 33.118 C 39 31.602 40.054 31.006 41.353 31.79 L 55.5 40.329 L 69.647 48.868 C 70.946 49.652 70.946 50.925 69.647 51.709 Z " fill="rgb(235,235,235)"/>
</svg>
