<?xml version="1.0" standalone="no"?><!-- Generator: Gravit.io --><svg xmlns="http://www.w3.org/2000/svg" xmlns:xlink="http://www.w3.org/1999/xlink" style="isolation:isolate" viewBox="0 0 200 200" width="200" height="200"><defs><clipPath id="_clipPath_FyWFzib11kEhCfv1wPgIZ7TkenpDlgKY"><rect width="200" height="200"/></clipPath></defs><g clip-path="url(#_clipPath_FyWFzib11kEhCfv1wPgIZ7TkenpDlgKY)"><linearGradient id="_lgradient_1" x1="0.5" y1="-5.551115123125783e-17" x2="0.52" y2="1.0299999999999994" gradientTransform="matrix(200,0,0,200,0,0)" gradientUnits="userSpaceOnUse"><stop offset="1.3043478260869565%" stop-opacity="1" style="stop-color:rgb(240,88,43)"/><stop offset="100%" stop-opacity="1" style="stop-color:rgb(236,5,134)"/></linearGradient><circle vector-effect="non-scaling-stroke" cx="100.00000000000001" cy="100.00000000000003" r="100.00000000000001" fill="url(#_lgradient_1)"/><g><g><g><g><ellipse vector-effect="non-scaling-stroke" cx="99.99480234602399" cy="158.15625000000006" rx="6.49615316509859" ry="4.84375" fill="rgb(255,255,255)"/><path d=" M 150.988 76.727 C 150.774 55.896 127.981 39 99.995 39 C 71.876 39 49 56.057 49 77.023 C 49 79.699 51.908 81.867 55.496 81.867 C 59.084 81.867 61.992 79.699 61.992 77.023 C 61.992 61.399 79.04 48.688 99.995 48.688 C 120.949 48.688 137.997 61.399 137.997 77.023 C 137.997 77.11 138 77.195 138.006 77.281 C 137.875 88.557 128.838 98.677 114.906 103.113 C 101.901 107.253 93.499 116.839 93.499 127.535 L 93.499 138.781 C 93.499 141.456 96.407 143.625 99.995 143.625 C 103.583 143.625 106.491 141.456 106.491 138.781 L 106.491 127.535 C 106.491 120.725 111.796 114.636 120.008 112.022 C 138.84 106.027 151.005 92.289 151 77.022 C 151 76.923 150.996 76.825 150.988 76.727 Z " fill="rgb(255,255,255)"/></g></g></g></g></g></svg>