<svg xmlns="http://www.w3.org/2000/svg" width="22" height="22" viewBox="0 0 22 22">
    <path fill="#E73A9E" fill-rule="nonzero" d="M10.982 0C4.928 0 0 4.926 0 10.982c0 6.057 4.926 10.983 10.982 10.983 6.056 0 10.983-4.926 10.983-10.982C21.965 4.925 17.038 0 10.983 0zm-.11 19.857c-4.956 0-8.986-4.03-8.986-8.986 0-4.953 4.03-8.985 8.985-8.985 4.955 0 8.986 4.032 8.986 8.985 0 4.955-4.03 8.986-8.986 8.986zm-2.428-6.608c1.2 1.202 3.572 1.232 4.803 0 1.232-1.232 1.201-3.604 0-4.805-1.2-1.201-3.602-1.201-4.803 0s-1.202 3.603 0 4.805z"/>
</svg>
