<svg xmlns="http://www.w3.org/2000/svg" xmlns:xlink="http://www.w3.org/1999/xlink" style="isolation:isolate"
     viewBox="0 0 100 100"
     width="100" height="100">
  <path
    d=" M 50 99 C 22.651 99 0.5 76.849 0.5 49.5 C 0.5 22.151 22.651 0 50 0 C 77.349 0 99.5 22.151 99.5 49.5 C 99.5 76.849 77.349 99 50 99 Z  M 50 9.9 C 28.096 9.9 10.4 27.596 10.4 49.5 C 10.4 71.404 28.096 89.1 50 89.1 C 71.904 89.1 89.6 71.404 89.6 49.5 C 89.6 27.596 71.904 9.9 50 9.9 Z  M 50 74.25 C 36.388 74.25 25.25 63.113 25.25 49.5 C 25.25 35.888 36.388 24.75 50 24.75 C 63.613 24.75 74.75 35.888 74.75 49.5 C 74.75 63.113 63.613 74.25 50 74.25 Z "
    fill-rule="evenodd" fill="rgb(231,58,158)"/>
</svg>
