<svg xmlns="http://www.w3.org/2000/svg" width="29" height="17" viewBox="0 0 29 17">
    <g fill="#B1B1B1" fill-rule="nonzero">
        <path d="M22.353 1.783h-17.7c-.1 2.08-.65 3.285-2.744 3.434v4.834c.985.066 1.628.356 2.06.896.42.525.623 1.298.684 2.546H22.32c.155-2.2 1.262-3.301 3.355-3.442V5.218c-.985-.067-1.777-.357-2.316-.867-.595-.564-.925-1.379-1.006-2.568zm-8.719 10.94c-2.91 0-5.27-2.278-5.27-5.089 0-2.81 2.359-5.088 5.27-5.088 2.911 0 5.271 2.278 5.271 5.088-.003 2.81-2.361 5.086-5.27 5.089z"/>
        <path d="M13.634 3.26c-2.503 0-4.532 1.958-4.532 4.374 0 2.417 2.03 4.376 4.532 4.376 2.503 0 4.532-1.96 4.532-4.376-.003-2.415-2.03-4.372-4.532-4.375zm1.126 2.803h.714c.204 0 .37.16.37.357a.363.363 0 0 1-.37.356h-.714c-.167.894-.972 1.545-1.913 1.546h-.124l1.957 1.782c.145.136.15.359.011.5a.378.378 0 0 1-.519.016l-2.632-2.4a.345.345 0 0 1-.09-.39.366.366 0 0 1 .344-.222h1.053a1.22 1.22 0 0 0 1.151-.832h-2.204a.363.363 0 0 1-.37-.356c0-.197.166-.357.37-.357h2.204c-.156-.476-.613-.773-1.151-.773h-1.053a.363.363 0 0 1-.37-.356c0-.197.166-.357.37-.357h3.68c.205 0 .37.16.37.357a.363.363 0 0 1-.37.356h-1.101c.192.224.325.489.387.773z"/>
        <path d="M27.953 1.783v13.815a.312.312 0 0 1-.097.24.337.337 0 0 1-.249.092H1.847V17H29V1.783h-1.047z"/>
        <path d="M27.214 0H0v15.217h27.214V0zm-.8 10.393a.366.366 0 0 1-.362.363c-2.082.032-2.953.932-3.01 3.092a.373.373 0 0 1-.37.359H4.297a.369.369 0 0 1-.364-.36c-.068-2.588-.687-3.07-2.41-3.097a.367.367 0 0 1-.253-.107.342.342 0 0 1-.1-.25V4.877a.357.357 0 0 1 .353-.36c1.646-.027 2.335-.465 2.405-3.09a.37.37 0 0 1 .37-.356h18.408a.37.37 0 0 1 .369.355c.03 1.144.292 1.942.802 2.424.466.441 1.157.654 2.175.67a.362.362 0 0 1 .362.357v5.517z"/>
    </g>
</svg>
