<svg xmlns="http://www.w3.org/2000/svg" width="24" height="26" viewBox="0 0 24 26">
    <path fill="#B1B1B1" fill-rule="evenodd" stroke="#B1B1B1" stroke-width=".5" d="M18.875 16.827c-1.32 0-2.503.627-3.245 1.58l-6.682-3.84a4.122 4.122 0 0 0 0-3.133l6.682-3.842a4.118 4.118 0 0 0 3.245 1.58C21.158 9.173 23 7.349 23 5.087 23 2.825 21.158 1 18.875 1S14.75 2.825 14.75 5.086c0 .546.11 1.09.302 1.553l-6.682 3.87c-.77-.955-1.925-1.581-3.245-1.581C2.842 8.928 1 10.753 1 13.014S2.842 17.1 5.125 17.1c1.32 0 2.503-.626 3.245-1.58l6.682 3.842a4.115 4.115 0 0 0-.302 1.552c0 2.261 1.842 4.086 4.125 4.086S23 23.175 23 20.914s-1.842-4.087-4.125-4.087zm0-14.71c1.677 0 3.025 1.334 3.025 2.996a3.002 3.002 0 0 1-3.025 2.997 3.002 3.002 0 0 1-3.025-2.997c0-1.662 1.348-2.996 3.025-2.996zM5.125 16.01c-1.677 0-3.025-1.335-3.025-2.996a3.002 3.002 0 0 1 3.025-2.997 3.002 3.002 0 0 1 3.025 2.997c0 1.661-1.348 2.996-3.025 2.996zm13.75 7.9a3.003 3.003 0 0 1-3.025-2.996c0-1.661 1.348-2.997 3.025-2.997 1.677 0 3.025 1.336 3.025 2.997a3.003 3.003 0 0 1-3.025 2.997z"/>
</svg>
