<svg xmlns="http://www.w3.org/2000/svg" width="27" height="26" viewBox="0 0 27 26">
    <path fill="#B1B1B1" fill-rule="nonzero" stroke="#979797" stroke-width=".5" d="M6.016 24.8a.443.443 0 0 1-.437-.52l1.373-8.008L1.134 10.6a.445.445 0 0 1 .247-.758l8.04-1.168 3.596-7.286a.443.443 0 1 1 .796 0l3.596 7.286 8.04 1.168a.445.445 0 0 1 .247.758l-5.818 5.671 1.373 8.008a.445.445 0 0 1-.645.468l-7.19-3.78-7.193 3.78a.448.448 0 0 1-.207.051zM2.4 10.592l5.34 5.206c.104.101.152.249.128.393l-1.261 7.35 6.601-3.47a.443.443 0 0 1 .414 0l6.601 3.47-1.26-7.35a.445.445 0 0 1 .127-.393l5.34-5.206-7.38-1.073a.444.444 0 0 1-.334-.243l-3.3-6.687-3.302 6.688a.444.444 0 0 1-.334.243L2.4 10.593z"/>
</svg>
