<svg xmlns="http://www.w3.org/2000/svg" xmlns:xlink="http://www.w3.org/1999/xlink" style="isolation:isolate" viewBox="0 0 100 100" width="100" height="100">
    <path d=" M 64.7 30.4 L 35.3 30.4 C 32.36 30.4 30.4 32.36 30.4 35.3 L 30.4 64.7 C 30.4 67.64 32.36 69.6 35.3 69.6 L 64.7 69.6 C 67.64 69.6 69.6 67.64 69.6 64.7 L 69.6 35.3 C 69.6 32.36 67.64 30.4 64.7 30.4 Z " fill="#e73a9e"/>
  <path d=" M 50 1 C 23.05 1 1 23.05 1 50 C 1 76.95 23.05 99 50 99 C 76.95 99 99 76.95 99 50 C 99 23.05 76.95 1 50 1 Z  M 50 89.2 C 28.44 89.2 10.8 71.56 10.8 50 C 10.8 28.44 28.44 10.8 50 10.8 C 71.56 10.8 89.2 28.44 89.2 50 C 89.2 71.56 71.56 89.2 50 89.2 Z " fill="#e73a9e"/>
</svg>
