<svg xmlns="http://www.w3.org/2000/svg" xmlns:xlink="http://www.w3.org/1999/xlink" style="isolation:isolate" viewBox="0 0 100 100" width="100" height="100">
<path d=" M 86.423 68.246 C 87.18 69.007 88.174 69.388 89.17 69.388 C 90.161 69.388 91.149 69.011 91.906 68.258 C 96.918 63.268 99.679 56.618 99.679 49.534 C 99.679 42.46 96.927 35.813 91.931 30.817 C 90.416 29.302 87.962 29.302 86.448 30.817 C 84.933 32.331 84.933 34.786 86.448 36.3 C 89.979 39.831 91.923 44.532 91.923 49.534 C 91.923 54.54 89.973 59.238 86.434 62.762 C 84.916 64.273 84.912 66.729 86.423 68.246 Z " fill="rgb(255,255,255)"/>
  <path d=" M 5.228 72.14 L 29.894 72.14 C 30.948 72.14 31.978 72.459 32.848 73.055 L 65.008 95.077 C 68.478 97.453 73.19 94.968 73.19 90.763 L 73.19 8.305 C 73.19 4.1 68.478 1.615 65.008 3.991 L 32.848 26.013 C 31.978 26.608 30.948 26.927 29.894 26.927 L 5.228 26.927 C 2.341 26.927 0 29.268 0 32.156 L 0 66.912 C 0 69.8 2.341 72.14 5.228 72.14 Z " fill="rgb(255,255,255)"/>
</svg>
