<svg xmlns="http://www.w3.org/2000/svg" width="2169" height="1675" viewBox="0 0 2169 1675">
    <defs>
        <linearGradient id="a" x1="48.65%" x2="48.65%" y1="-31.88%" y2="65.419%">
            <stop offset="0%" stop-color="#FC6767"/>
            <stop offset="100%" stop-color="#EC008C"/>
        </linearGradient>
        <linearGradient id="b" x1="50%" x2="50%" y1="100.005%" y2="-.008%">
            <stop offset="0%" stop-color="gray" stop-opacity=".25"/>
            <stop offset="54%" stop-color="gray" stop-opacity=".12"/>
            <stop offset="100%" stop-color="gray" stop-opacity=".1"/>
        </linearGradient>
    </defs>
    <g fill="none" fill-rule="evenodd">
        <path fill="#EC008C" d="M649.263 603.966l-.013 769.86c620.566 61.312 1085.162-195.317 1393.79-769.885l-475.924.009-917.853.016z" opacity=".086"/>
        <path fill="url(#a)" d="M515.942 335L131 1001.712c506.77 363.38 1037.437 373.431 1592 30.155l-412.166-237.955L515.942 335z" transform="rotate(-30 1035.23 837.5)"/>
        <g transform="translate(1199 904)">
            <path fill="#FFF" fill-rule="nonzero" d="M240.563 416.772c39.566-23.248 84.763-30.678 128.933-20.714 62.59 14.129 141.254 8.59 156.49-100.411C552.01 109.487 442.96 60.352 442.96 60.352s-72.52-6.449-115.401-31C266.648-5.534 197.024-9.976 135.805 19.54c-39.15 18.86-71.39 45.123-76.898 81.181C43.506 201.563 68.8 257.125 21.482 290.043c-47.317 32.918-6.879 123.295 29.396 120.166 36.275-3.129 118.245-37.454 150.186 2.306 11.346 14.101 25.7 12.368 39.5 4.257z" opacity=".105"/>
            <g fill="#EF63FF" fill-rule="nonzero" opacity=".1">
                <path d="M340.69 120.463s-2.666-1.159-3.96 1.85c-.687 1.656-.666 3.646.058 5.277.844 1.946 2.582 4.5 5.874 4.253 2.794-.192 3.722-2.914 3.96-5.451.185-1.93-.422-3.844-1.606-5.064-1.183-1.22-2.776-1.573-4.211-.932l-.115.067z"/>
                <path d="M337.368 127.866c-.723-1.631-.744-3.62-.057-5.277 1.285-3.003 3.96-1.85 3.96-1.85l.137-.062a3.471 3.471 0 0 1 3.137.09c-1.119-.851-2.477-1.017-3.7-.45l-.137.062s-2.666-1.159-3.96 1.85c-.688 1.656-.666 3.646.057 5.277.661 1.611 1.723 2.896 3.019 3.65-1.039-.789-1.888-1.927-2.456-3.29z"/>
                <path d="M339.313 121.909s.99.995 3.393 0" opacity=".2"/>
                <path d="M339.098 114.68s1.694 5.873 1.553 7.409l1.342-.18s-2.262-5.147-1.694-7.228h-1.201z"/>
                <path d="M339.098 114.68s1.694 5.873 1.553 7.409l1.342-.18s-2.262-5.147-1.694-7.228h-1.201z" opacity=".2"/>
                <path d="M346.023 115.176s-2.67-1.744-3.863-.304c-1.192 1.44-1.377 5.124-1.377 5.124s4.351.754 5.24-4.82z"/>
                <path d="M346.023 115.176s-2.67-1.744-3.863-.304c-1.192 1.44-1.377 5.124-1.377 5.124s4.351.754 5.24-4.82zM340.778 119.996s.7-4.275 5.24-4.826"/>
            </g>
            <ellipse cx="510.5" cy="332.5" fill="#000" fill-rule="nonzero" opacity=".1" rx="27.5" ry="10.5"/>
            <path stroke="#535461" stroke-width="2" d="M510.656 333s16.116-56.701-3.024-98.44c-8.03-17.516-10.697-37.179-6.988-56.186A154.744 154.744 0 0 1 508.317 152"/>
            <path fill="#EF63FF" fill-rule="nonzero" d="M496 123.998c0 7.18 12 28.002 12 28.002s12-20.816 12-28.002c0-7.178-5.373-12.998-12-12.998s-12 5.82-12 12.998zM477.942 163.242C481.552 169.02 502 179 502 179s-.371-23.527-3.966-29.304c-2.324-3.74-6.389-5.905-10.662-5.68-4.274.225-8.108 2.807-10.057 6.773-1.95 3.966-1.718 8.713.606 12.453h.02zM479.582 228.34c5.907 3.066 28.418.946 28.418.946s-11.73-19.9-17.637-22.966a11.676 11.676 0 0 0-11.953.698c-3.578 2.415-5.633 6.612-5.39 11.01.241 4.398 2.743 8.33 6.562 10.312zM488.896 279.936C494.262 284.11 517 286 517 286s-8.369-22.333-13.735-26.507c-3.47-2.701-8.045-3.25-12.003-1.438-3.957 1.812-6.696 5.708-7.184 10.222-.488 4.513 1.348 8.958 4.818 11.66zM527.377 178.99C522.716 183.907 501 189 501 189s5.321-23.428 9.983-28.345c3.013-3.207 7.377-4.418 11.438-3.175 4.062 1.243 7.2 4.75 8.226 9.193 1.025 4.443-.218 9.142-3.26 12.317h-.01zM538.418 238.34c-5.907 3.066-28.418.946-28.418.946s11.73-19.9 17.637-22.966a11.676 11.676 0 0 1 11.953.698c3.578 2.415 5.633 6.612 5.39 11.01-.241 4.398-2.743 8.33-6.562 10.312zM543.014 297.954C537.666 302.116 515 304 515 304s8.342-22.268 13.69-26.43c3.456-2.754 8.05-3.341 12.032-1.536 3.98 1.805 6.733 5.723 7.206 10.259.473 4.535-1.405 8.99-4.92 11.66h.006z"/>
            <ellipse cx="441.5" cy="303.5" fill="#000" fill-rule="nonzero" opacity=".1" rx="27.5" ry="10.5"/>
            <path stroke="#535461" stroke-width="2" d="M440.177 304s7.172-26.314-1.347-45.684c-3.621-8.1-4.713-17.25-3.111-26.077a74.163 74.163 0 0 1 3.42-12.239"/>
            <path fill="#EF63FF" fill-rule="nonzero" d="M433.005 206.025c0 3.324 5.498 12.975 5.498 12.975S444 209.349 444 206.025c0-3.328-2.462-6.025-5.5-6.025s-5.5 2.697-5.5 6.025h.005zM424.814 224.345C426.333 227.13 435 232 435 232s-.158-11.43-1.678-14.235c-.983-1.816-2.703-2.867-4.512-2.757-1.808.11-3.43 1.364-4.254 3.29-.825 1.926-.726 4.231.258 6.047zM424.19 257.203c2.868 1.47 13.81.457 13.81.457s-5.699-9.55-8.561-11.025c-2.87-1.471-6.368-.298-7.815 2.62-1.446 2.918-.293 6.477 2.576 7.948h-.01zM431.37 279.07C433.974 281.085 445 282 445 282s-4.062-10.782-6.658-12.797c-1.684-1.304-3.903-1.568-5.822-.693-1.919.876-3.247 2.758-3.483 4.937-.236 2.18.656 4.325 2.339 5.629l-.005-.006zM449.217 233.3C446.881 235.606 436 238 436 238s2.667-11 4.999-13.305a5.823 5.823 0 0 1 8.335.124c2.268 2.376 2.214 6.174-.122 8.481h.005zM453.81 260.203c-2.868 1.47-13.81.457-13.81.457s5.699-9.55 8.561-11.025c2.87-1.471 6.368-.298 7.815 2.62 1.446 2.918.293 6.477-2.576 7.948h.01zM455.628 287.07C453.026 289.087 442 290 442 290s4.061-10.78 6.658-12.795c1.682-1.305 3.9-1.57 5.82-.696 1.918.874 3.247 2.754 3.484 4.933.237 2.178-.652 4.324-2.334 5.629z"/>
            <path fill="url(#b)" fill-rule="nonzero" d="M585.028 357.722l-159.189-89.59h-33.381l8.637-76.277c.382-3.372-.532-6.766-2.534-9.417-2.003-2.65-4.927-4.334-8.113-4.672l-.895.038h-.087l-121.438 1.959c-6.422-.482-12.222 4.056-13.686 10.707l-5.655 43.832-.818-1.325-.395-.638c2.987-2.062-2.905-14.318-7.897-23.455l-.453-.829c3.167-1.402 6.684-2.727 6.684-2.727l-7.789-5.16s-7.167-11.007-14.796-19.936c5.141-34.156-5.717-73.636-5.845-74.182l-.288.082a17.058 17.058 0 0 0 2.293-8.618c.001-4.69-1.893-9.154-5.203-12.262a99.522 99.522 0 0 0-1.368-9.103c-.113-.546-.231-1.151-.36-1.73-.586-2.727-1.177-5.454-1.953-8.127a42.48 42.48 0 0 0-2-5.569c-4.056-9.093-12.4-15.594-21.541-17.885-4.704-1.178-9.527.649-13.917-.224-2.211-.43-4.19-2.684-6.344-3.594-2.73-1.157-5.687-1.697-8.576-2.182-3.599-.638-7.336-1.271-10.92-.442-5.912 1.364-10.42 6.447-13.737 11.814-3.316 5.368-5.891 11.313-9.989 16.037-2.74 3.163-6.113 5.705-8.555 9.13-3.598 5.04-4.848 11.455-6.004 17.684-1.43 7.664-2.859 15.436-2.828 23.22 0 1.806.026 3.616.175 5.427.375 4.648 1.373 9.23 1.609 13.882 0 .502.036 1.004.046 1.506-.051 8.514-2.421 16.909-4.776 25.09-.75 2.602-1.511 5.226-2.4 7.79-4.73.425-9.255 1.429-12.704 3.403-12.606 7.156-22.308 23.116-22.308 23.116l-18.44 18s7.279 3.606 10.677 9.786c.122.218.261.424.417.616l-.268.655-10.827 26.53s6.797 5.15 16.966 4.119c1.653-.22 3.33-.09 4.935.381 0 .328-.03.66-.04 1.01-.623 15.18-.952 48.441 6.451 70.908l-16.729 20.727-33.417 10.5L24 385h562l-.972-27.278zm-481.973-101.7c1.433.31 2.83.782 4.17 1.408v18.96c-.885-6.699-2.114-13.56-3.826-19.266-.108-.37-.205-.736-.344-1.102zm96.493 36.486v-.197c.02-.662.105-1.32.252-1.963a5.665 5.665 0 0 1 1.342-2.651 94.793 94.793 0 0 0 3.8-4.26 20.112 20.112 0 0 0 3.362 5.896c1.645 1.947 5.32 3.698 10.482 5.28a178.646 178.646 0 0 0-19.238-2.105zm41.957-2.619l-16.801 5.275c-7.943-1.887-13.593-4.047-15.686-6.545a19.388 19.388 0 0 1-3.352-6.088c5.995-7.374 11.825-17.296 13.161-30.845.036-.355.062-.72.093-1.09a33.523 33.523 0 0 0 5.141-3.82l.303.754c4.518 10.897 10.907 20.808 18.842 29.225l-1.701 13.134zM216.6 106.93c1.322 5.056 10.282 40.854 5.79 72.332-2.798-3.197-5.62-6.055-8.15-7.936-.599-.44-1.226-.836-1.876-1.184-.56-5.771-.817-11.755-.859-17.684.052-7.341.463-14.623 1.029-21.55.611-7.342 1.331-14.346 1.778-21.235a16.212 16.212 0 0 0 2.288-2.744z"/>
            <path fill="#DFE6F5" fill-rule="nonzero" d="M207.64 114H203V82h4.64C215.02 82 221 87.964 221 95.32v5.327a13.301 13.301 0 0 1-3.902 9.44A13.38 13.38 0 0 1 207.64 114z"/>
            <rect width="8" height="32" x="200" y="82" fill="#535461" fill-rule="nonzero" rx="4" transform="rotate(-180 204 98)"/>
            <g fill="#000" fill-rule="nonzero" opacity=".1" transform="translate(201 82)">
                <path d="M8.375 32.571H4.11V.121h4.265c6.782 0 12.28 6.048 12.28 13.508v5.401c.008 3.588-1.282 7.033-3.586 9.573s-5.432 3.968-8.694 3.968z"/>
                <rect width="7.24" height="32.422" x=".49" y=".148" rx="3.62" transform="rotate(-180 4.11 16.36)"/>
            </g>
            <path fill="#865A61" fill-rule="nonzero" d="M134 100h77v84h-77z"/>
            <path fill="#000" fill-rule="nonzero" d="M134 88h77v84h-77z" opacity=".1"/>
            <path fill="#FDC2CC" fill-rule="nonzero" d="M208 169.726l-4.654 35.757-2.193 16.807-.807 6.173-6.759 13.931-12.41 25.566-23.944 3.04-42.116-62.794s-22.05-44.555 11.475-40.509c18.798 2.275 23.271-15.516 23.608-31.585A126.12 126.12 0 0 0 148.13 112l33.52 17.217c-.778 3.838-1.364 7.365-1.757 10.58-1.635 13.154-.28 21.356 2.554 26.326 7.545 13.236 25.552 3.603 25.552 3.603z"/>
            <path fill="#000" fill-rule="nonzero" d="M182 129.583c-.767 3.921-1.344 7.524-1.73 10.808A35.21 35.21 0 0 1 169.745 142c-6.554.012-13-1.837-18.71-5.368A133.617 133.617 0 0 0 149 112l33 17.583z" opacity=".1"/>
            <ellipse cx="168.5" cy="98.5" fill="#FDC2CC" fill-rule="nonzero" rx="38.5" ry="40.5"/>
            <path fill="#EC7580" fill-rule="nonzero" d="M220.988 331.937L63 345l25.616-31.623c27.486-17.768 27.25-42.193 23.597-57.343a61.058 61.058 0 0 0-5.097-13.936l54.608.27h.46l4.488 10.793.205.488 3.34 8.027 11.384-21.584 3.96-6.754 2.214-3.794s32.737-8.033 33.208 12.548a58.19 58.19 0 0 1-.261 7.08c-1.63 16.564-10.195 27.579-17.29 35.086-8.065 8.527 17.556 47.679 17.556 47.679z"/>
            <path fill="#EC7580" fill-rule="nonzero" d="M200.28 288.147c-1.147 4.904 1.747 13.333 5.586 21.61-18.408 2.124-38.594 1.018-38.594 1.018l-20.713 6.06L88.25 335c-2.539-3.525-4.57-7.955-6.251-12.946l5.779-7.236c18.185-11.921 24.126-26.823 24.995-39.944a60.055 60.055 0 0 0-1.605-17.702 61.933 61.933 0 0 0-5.048-13.998l54.128.272h.457l4.449 10.849.203.49 3.311 8.07 11.284-21.697 3.915-6.789 2.194-3.814s32.45-8.086 32.921 12.619a59.313 59.313 0 0 1-.259 7.116c-1.614 16.651-10.105 27.723-17.138 35.269a5.579 5.579 0 0 0-1.305 2.588z"/>
            <path fill="#FDC2CC" fill-rule="nonzero" d="M325.977 314.467c-.956 12.19-28.732-4.065-28.732-4.065s-8.62-3.05-37.833-22.859c-14.832-10.055-26.527-24.54-33.614-41.63A62.186 62.186 0 0 1 223 237.76L243.127 222l5.87 9.518 19.511 31.625 28.732 20.297s29.694 18.838 28.737 31.027z"/>
            <path fill="#CBCDDA" fill-rule="nonzero" d="M580 354H30l55.06-17.273 137.648-43.187L310.483 266H423.54z"/>
            <path fill="#CBCDDA" fill-rule="nonzero" d="M30.428 353L29 380h551l-.95-27z"/>
            <path fill="#000" fill-rule="nonzero" d="M30.428 353L29 380h551l-.95-27z" opacity=".1"/>
            <path fill="#535461" fill-rule="nonzero" d="M175.67 315.672L292.56 303l1.44 24.29-53.429 5.59a33.133 33.133 0 0 1-10.99-.902l-54.009-14.721a.806.806 0 0 1-.57-.836c.024-.386.304-.7.669-.75z"/>
            <path fill="#000" fill-rule="nonzero" d="M175.67 315.672L292.56 303l1.44 24.29-53.429 5.59a33.133 33.133 0 0 1-10.99-.902l-54.009-14.721a.806.806 0 0 1-.57-.836c.024-.386.304-.7.669-.75z" opacity=".2"/>
            <path fill="#535461" fill-rule="nonzero" d="M175.68 316.68L292.571 304 294 328.304l-52.999 4.571c-3.653.321-7.33.022-10.895-.885l-54.525-13.72c-.359-.092-.603-.446-.58-.838.025-.393.31-.71.678-.752z"/>
            <path fill="#FFF" fill-rule="nonzero" d="M203.342 316.994L263.268 310l.732 13.406-27.169 2.527c-1.874.175-3.76.007-5.588-.496l-27.95-7.57c-.182-.053-.304-.247-.292-.46.012-.214.155-.387.34-.413z" opacity=".3"/>
            <path fill="#000" fill-rule="nonzero" d="M250 231.557c-.378.55-1.035.798-2.039.644-9.584-1.53-20.607 13.249-20.607 13.249s-.197.198-.554.55a62.467 62.467 0 0 1-2.8-8.176L244.126 222l5.874 9.557zM220.718 250.344c-4.536 2.652-10.78 4.555-15.649-.547-8.41-8.83-23.152-7.654-24.069-7.6 1.505-.218 2.838-3.466 3.973-7.818l2.25-3.828s33.276-8.092 33.76 12.685a58.25 58.25 0 0 1-.265 7.108z" opacity=".1"/>
            <path fill="#000" fill-rule="nonzero" d="M203 205l-3.053 23.029-6.88 13.971A40.338 40.338 0 0 0 180 240.722c4.848-.696 7.98-32.251 7.98-32.251l.28-.066L203 205z" opacity=".1"/>
            <path fill="#EC7580" fill-rule="nonzero" d="M247.563 231.89c-9.508-1.495-20.443 12.959-20.443 12.959s-12.834 12.958-21.392 3.988c-8.29-8.691-22.824-7.534-23.728-7.48 4.728-.69 7.783-31.659 7.783-31.659l.272-.064L235.678 199s2.721 4.37 5.791 9.934c5.54 10.025 12.213 23.92 6.094 22.957z"/>
            <path fill="#000" fill-rule="nonzero" d="M234.714 210.877c.475.99-7.56 5.941-11.336 4.454-3.776-1.486-13.23 6.417-14.174 7.428-.944 1.01-22.204-1.486-22.204-1.486a109.39 109.39 0 0 0 1.903-12.706L234.245 198s2.704 4.342 5.755 9.872c-2.821 1.213-5.515 2.518-5.286 3.005z" opacity=".1"/>
            <path fill="#000" fill-rule="nonzero" d="M208 170.577l-4.596 35.661L201.238 223c-6.343-.507-14.034-1.418-14.034-1.418s8.039-35.852-5.204-54.527c0 0 .28 0 .786-.055 7.431 13.185 25.214 3.577 25.214 3.577z" opacity=".1"/>
            <path fill="#EC7580" fill-rule="nonzero" d="M182 167.264s24.374-1.998 33.932 4.999c9.558 6.997 23.42 27.998 23.42 27.998L247 205.26s-11.947 4.497-11.467 5.501c.48 1.004-7.649 5.998-11.467 4.497-3.82-1.5-13.382 6.479-14.337 7.499-.955 1.02-22.46-1.501-22.46-1.501s8.113-35.496-5.269-53.992z"/>
            <path fill="#DFE6F5" fill-rule="nonzero" d="M356.974 307c-5.472-.143-134.13-3.744-146.412-18.522-13.078-15.736-.383-61.078 10.307-93.817 11.634-35.64-2.236-86.819-2.374-87.402l.914-.259c.143.59 14.084 52.065 2.353 87.997-16.626 50.936-20.062 81.29-10.495 92.798 12.017 14.453 144.396 18.17 145.733 18.17l-.026 1.035z"/>
            <path fill="#535461" fill-rule="nonzero" d="M267.031 179.932L386.527 178c3.112.338 5.965 1.993 7.92 4.594 1.953 2.601 2.843 5.93 2.47 9.236L383.36 312.012c-.67 5.958-5.246 10.554-10.872 10.915l-122.135 8.05c-3.502.224-6.913-1.244-9.285-3.997-2.372-2.752-3.454-6.496-2.944-10.193l16.217-126.305c.903-6.563 6.492-11.21 12.69-10.55z"/>
            <path fill="#000" fill-rule="nonzero" d="M267.031 179.932L386.527 178c3.112.338 5.965 1.993 7.92 4.594 1.953 2.601 2.843 5.93 2.47 9.236L383.36 312.012c-.67 5.958-5.246 10.554-10.872 10.915l-122.135 8.05c-3.502.224-6.913-1.244-9.285-3.997-2.372-2.752-3.454-6.496-2.944-10.193l16.217-126.305c.903-6.563 6.492-11.21 12.69-10.55z" opacity=".2"/>
            <path fill="#535461" fill-rule="nonzero" d="M270.023 179.932L389.508 178c3.115.332 5.973 1.986 7.931 4.587 1.958 2.602 2.851 5.933 2.478 9.243L386.36 312.012c-.669 5.958-5.245 10.554-10.87 10.915l-122.14 8.05c-3.501.224-6.911-1.244-9.283-3.997-2.372-2.752-3.454-6.496-2.944-10.193l16.215-126.305c.903-6.56 6.489-11.206 12.684-10.55z"/>
            <circle cx="327.5" cy="248.5" r="5.5" fill="#FFF" fill-rule="nonzero" opacity=".3"/>
            <path fill="#000" fill-rule="nonzero" d="M208 310.234c-18.725 2.086-39.259 1-39.259 1l-21.07 5.94L88.359 335c-2.583-3.46-4.65-7.806-6.359-12.704l5.878-7.1c18.499-11.698 24.542-26.321 25.426-39.196 1.58 12.805 1.844 24.338 1.844 24.338l23.917-2.476 34.749-8.554a30.365 30.365 0 0 1 7.304-.882c4.525 0 12.578.101 21.18.582-1.148 4.818 1.797 13.094 5.702 21.226z" opacity=".1"/>
            <path fill="#000" fill-rule="nonzero" d="M233.821 304.329c-11.021 13.566-67.562 10.555-67.562 10.555l-21.086 6.029L85.755 339a19.84 19.84 0 0 1-.755-1.085L223.276 295c8.827 1.867 14.245 4.776 10.545 9.329z" opacity=".1"/>
            <path fill="#FDC2CC" fill-rule="nonzero" d="M233.832 304.064c-10.924 13.67-66.965 10.636-66.965 10.636l-20.9 6.07L87.076 339c-13.847-19.138-13.54-64.748-12.786-83.197.205-4.954.436-7.95.436-7.95s19.946-13.168 28.972 0c1.61 2.345 2.96 5.626 4.103 9.432 5.236 17.547 5.878 46.265 5.878 46.265l23.745-2.531 34.501-8.75a29.331 29.331 0 0 1 7.257-.902c14.299.044 64.027.963 54.651 12.697z"/>
            <path fill="#000" fill-rule="nonzero" d="M107 255.56c-2.986-.712-6.608-.556-11.519 1.737-9.826 4.635-17.308 3.606-17.308 3.606s.601-5.26-4.173-6.856c.202-5.042.43-8.091.43-8.091s19.647-13.4 28.538 0c1.572 2.387 2.91 5.726 4.032 9.604zM165 254.783c-.314.072-4.528.94-12.647-1.03-8.433-2.047-11.71 2.048-16.395 4.102-4.685 2.053-16.84 3.077-21.545 1.03-1.108-.488-2.221-1.108-3.4-1.661A63.729 63.729 0 0 0 106 243l53.921.277 4.887 11.019.192.487z" opacity=".1"/>
            <path fill="#EC7580" fill-rule="nonzero" d="M166 253.705s-4.235 1.032-12.71-1.032c-8.475-2.063-11.769 2.064-16.477 4.134-4.707 2.07-16.95 3.101-21.657 1.032-4.708-2.07-9.416-6.197-19.319-1.551-9.903 4.646-17.417 3.614-17.417 3.614s.94-8.266-8.943-7.25C59.594 253.665 53 248.517 53 248.517L63.503 221.9l3.152-7.993 78.77-5.907h.377L166 253.705z"/>
            <path fill="#000" fill-rule="nonzero" d="M153 228.93c-5.31-9.304-33.3-1.032-33.3-1.032s-13.513 4.136-16.41-3.617c-2.898-7.753-23.618-2.606-23.618-2.606s-15.035 6.039-18.672.245l3.231-7.998L144.938 208 153 228.93z" opacity=".1"/>
            <path fill="#EC7580" fill-rule="nonzero" d="M131.005 170.016s-26.335-5.4-38.781 1.474c-12.446 6.873-22.023 22.08-22.023 22.08L52 210.746s7.182 3.434 10.533 9.321c3.35 5.888 18.677 0 18.677 0s20.59-4.907 23.465 2.454c2.875 7.36 16.283 3.434 16.283 3.434s27.773-7.854 33.042.98l-22.995-56.918z"/>
            <path fill="#000" fill-rule="nonzero" d="M161.937 40.82c-3.516-.629-7.135-1.241-10.62-.434-5.749 1.328-10.132 6.288-13.357 11.513-3.226 5.225-5.733 11.024-9.714 15.626-2.665 3.084-5.942 5.56-8.316 8.9-3.496 4.916-4.714 11.187-5.84 17.236-1.652 8.878-3.308 17.886-2.58 26.921.368 4.531 1.336 8.992 1.565 13.55.464 9.155-2.079 18.142-4.586 26.911-1.738 6.06-3.532 12.234-6.967 17.41-2.277 3.43-5.198 6.303-7.98 9.279a5.232 5.232 0 0 0-1.463 2.282c-.601 2.59 2.34 4.336 4.587 5.507 6.875 3.647 11.385 10.764 16.73 16.628 5.346 5.865 12.995 10.9 20.35 8.548 2.18-.7 4.25-2.027 6.522-1.984 1.529.027 2.997.689 4.45 1.23a31.596 31.596 0 0 0 11.246 2.006 4.131 4.131 0 0 0 2.441-.542c1.137-.818 1.356-2.466 1.468-3.919.718-9.116 1.432-18.265.948-27.398-1.096-20.683-19.065-44.608-12.23-64.017 2.97-8.466 8.403-15.751 11.41-24.2 3.17-8.906 14.345-16.137 16.562-25.367.25-1.04.59-2.168 1.447-2.71 1.177-.77 2.711-.098 3.848.737 6.43 4.716 8.525 13.583 10.864 21.507a137.932 137.932 0 0 0 6.987 18.613c1.529 3.252 4.81 7.019 7.685 5.046-1.447 13.702-9.805 25.67-11.695 39.306-1.845 13.29 2.624 26.873.891 40.174-1.14 8.564-4.786 16.528-10.421 22.765a48.776 48.776 0 0 0 19.278.184c6.467-1.241 13.388-4.499 15.722-11.035 2.548-7.193-1.391-14.911-3.394-22.304-4.806-17.773-4.434-38.792-2.91-57.215 1.57-18.943 3.924-35.529-.066-54.065-.979-4.548-1.972-9.133-3.848-13.35-3.944-8.862-12.057-15.203-20.95-17.436-4.586-1.15-9.265.634-13.535-.212-2.15-.428-4.077-2.618-6.166-3.507-2.681-1.165-5.555-1.685-8.363-2.184z" opacity=".1"/>
            <path fill="#353535" fill-rule="nonzero" d="M221.16 210.092c-2.334 6.538-9.255 9.796-15.727 11.038a48.871 48.871 0 0 1-19.28-.185c5.634-6.239 9.28-14.204 10.423-22.77 1.737-13.309-2.732-26.894-.892-40.182 1.89-13.645 10.248-25.616 11.696-39.32-2.874 1.973-6.182-1.78-7.69-5.048a138.288 138.288 0 0 1-6.988-18.617c-2.339-7.926-4.434-16.806-10.865-21.512-1.137-.835-2.67-1.507-3.848-.732-.861.543-1.198 1.686-1.447 2.711-2.212 9.216-13.394 16.46-16.558 25.366-3.012 8.452-8.445 15.722-11.416 24.207-6.81 19.408 11.16 43.338 12.231 64.025.479 9.135-.234 18.292-.948 27.405-.117 1.459-.336 3.107-1.473 3.925a4.121 4.121 0 0 1-2.436.542 31.486 31.486 0 0 1-11.217-1.995c-1.452-.542-2.91-1.203-4.45-1.23-2.272-.038-4.341 1.29-6.523 1.984-7.354 2.353-15.008-2.684-20.35-8.55-5.34-5.865-9.866-12.973-16.736-16.6-2.247-1.192-5.188-2.916-4.587-5.513a5.27 5.27 0 0 1 1.463-2.277c2.783-2.976 5.708-5.855 7.986-9.281 3.435-5.178 5.224-11.353 6.967-17.414 2.517-8.771 5.06-17.76 4.587-26.917-.225-4.537-1.193-8.999-1.565-13.553-.734-9.02.928-18.042 2.579-26.922 1.12-6.05 2.339-12.323 5.84-17.24 2.38-3.34 5.652-5.817 8.323-8.902 3.985-4.602 6.482-10.403 9.713-15.635 3.231-5.231 7.614-10.186 13.363-11.515 3.48-.807 7.104-.19 10.62.434 2.809.504 5.683 1.025 8.339 2.169 2.094.889 4.02 3.084 6.166 3.502 4.27.85 8.965-.933 13.536.217 8.893 2.228 17.007 8.57 20.951 17.435a41.506 41.506 0 0 1 1.947 5.42c.754 2.603 1.33 5.265 1.901 7.921.122.543.24 1.128.352 1.686 3.49 17.652 1.238 30.506-.286 48.868-1.523 18.362-1.896 42.964 2.905 60.72 2.003 7.415 5.963 15.14 3.394 22.335z"/>
            <path fill="#000" fill-rule="nonzero" d="M167 243s3.368 6.48 3.368 11c0 0 2.527-11 4.632-11" opacity=".05"/>
            <path fill="#DFE6F5" fill-rule="nonzero" d="M156 243.998v33.011c.007 5.393-1.733 10.629-4.939 14.859a24.354 24.354 0 0 1-1.755 2.063C144.988 298.456 139.12 301 133 301c-6.12 0-11.988-2.544-16.307-7.07a24.359 24.359 0 0 1-1.754-2.062c-3.206-4.23-4.946-9.466-4.939-14.859V244c-.01-5.61 1.871-11.044 5.316-15.35a22.434 22.434 0 0 1 1.973-2.161c8.843-8.65 22.605-8.65 31.448 0 .186.173.368.362.549.54.517.54.968 1.08 1.423 1.62 3.436 4.31 5.309 9.744 5.291 15.35z"/>
            <path fill="#000" fill-rule="nonzero" d="M156 243.998v33.011c.007 5.393-1.733 10.629-4.939 14.859a24.354 24.354 0 0 1-1.755 2.063C144.988 298.456 139.12 301 133 301c-6.12 0-11.988-2.544-16.307-7.07a24.359 24.359 0 0 1-1.754-2.062c-3.206-4.23-4.946-9.466-4.939-14.859V244c-.01-5.61 1.871-11.044 5.316-15.35a22.434 22.434 0 0 1 1.973-2.161c8.843-8.65 22.605-8.65 31.448 0 .186.173.368.362.549.54.517.54.968 1.08 1.423 1.62 3.436 4.31 5.309 9.744 5.291 15.35z" opacity=".1"/>
            <path fill="#DFE6F5" fill-rule="nonzero" d="M157 243.998v33.011c.007 5.393-1.732 10.629-4.935 14.859a24.35 24.35 0 0 1-1.754 2.063c-4.315 4.525-10.18 7.069-16.295 7.069-6.117 0-11.98-2.544-16.296-7.07a24.355 24.355 0 0 1-1.754-2.062c-3.214-4.226-4.965-9.463-4.966-14.859V244c-.01-5.61 1.87-11.044 5.313-15.35a22.429 22.429 0 0 1 1.97-2.161c8.838-8.65 22.59-8.65 31.428 0 .186.173.367.362.548.54.518.54.968 1.08 1.423 1.62 3.445 4.306 5.327 9.74 5.318 15.35z"/>
            <circle cx="125.5" cy="227.5" r="1.5" fill="#000" fill-rule="nonzero" opacity=".1"/>
            <circle cx="125.5" cy="233.5" r="1.5" fill="#000" fill-rule="nonzero" opacity=".1"/>
            <circle cx="125.5" cy="238.5" r="1.5" fill="#000" fill-rule="nonzero" opacity=".1"/>
            <circle cx="125.5" cy="243.5" r="1.5" fill="#000" fill-rule="nonzero" opacity=".1"/>
            <circle cx="125.5" cy="246.5" r="1.5" fill="#000" fill-rule="nonzero" opacity=".1"/>
            <circle cx="125.5" cy="253.5" r="1.5" fill="#000" fill-rule="nonzero" opacity=".1"/>
            <circle cx="125.5" cy="258.5" r="1.5" fill="#000" fill-rule="nonzero" opacity=".1"/>
            <circle cx="125.5" cy="263.5" r="1.5" fill="#000" fill-rule="nonzero" opacity=".1"/>
            <circle cx="125.5" cy="269.5" r="1.5" fill="#000" fill-rule="nonzero" opacity=".1"/>
            <circle cx="125.5" cy="272.5" r="1.5" fill="#000" fill-rule="nonzero" opacity=".1"/>
            <circle cx="125.5" cy="278.5" r="1.5" fill="#000" fill-rule="nonzero" opacity=".1"/>
            <circle cx="125.5" cy="283.5" r="1.5" fill="#000" fill-rule="nonzero" opacity=".1"/>
            <circle cx="125.5" cy="289.5" r="1.5" fill="#000" fill-rule="nonzero" opacity=".1"/>
            <circle cx="125.5" cy="293.5" r="1.5" fill="#000" fill-rule="nonzero" opacity=".1"/>
            <path fill="#000" fill-rule="nonzero" d="M121 227.802c0 .464-.274.886-.702 1.084a1.24 1.24 0 0 1-1.298-.16c.52-.61 1.079-1.187 1.675-1.726.208.217.324.504.325.802z" opacity=".1"/>
            <circle cx="119.5" cy="233.5" r="1.5" fill="#000" fill-rule="nonzero" opacity=".1"/>
            <circle cx="119.5" cy="238.5" r="1.5" fill="#000" fill-rule="nonzero" opacity=".1"/>
            <circle cx="119.5" cy="243.5" r="1.5" fill="#000" fill-rule="nonzero" opacity=".1"/>
            <circle cx="119.5" cy="246.5" r="1.5" fill="#000" fill-rule="nonzero" opacity=".1"/>
            <circle cx="119.5" cy="253.5" r="1.5" fill="#000" fill-rule="nonzero" opacity=".1"/>
            <circle cx="119.5" cy="258.5" r="1.5" fill="#000" fill-rule="nonzero" opacity=".1"/>
            <circle cx="119.5" cy="263.5" r="1.5" fill="#000" fill-rule="nonzero" opacity=".1"/>
            <circle cx="119.5" cy="269.5" r="1.5" fill="#000" fill-rule="nonzero" opacity=".1"/>
            <circle cx="119.5" cy="272.5" r="1.5" fill="#000" fill-rule="nonzero" opacity=".1"/>
            <circle cx="119.5" cy="278.5" r="1.5" fill="#000" fill-rule="nonzero" opacity=".1"/>
            <circle cx="119.5" cy="283.5" r="1.5" fill="#000" fill-rule="nonzero" opacity=".1"/>
            <circle cx="119.5" cy="289.5" r="1.5" fill="#000" fill-rule="nonzero" opacity=".1"/>
            <path fill="#000" fill-rule="nonzero" d="M121 293.544c0 .66-.432 1.246-1.074 1.456a25.503 25.503 0 0 1-1.926-2.115 1.586 1.586 0 0 1 1.772-.847 1.543 1.543 0 0 1 1.228 1.506z" opacity=".1"/>
            <circle cx="131.5" cy="227.5" r="1.5" fill="#000" fill-rule="nonzero" opacity=".1"/>
            <circle cx="131.5" cy="233.5" r="1.5" fill="#000" fill-rule="nonzero" opacity=".1"/>
            <circle cx="131.5" cy="238.5" r="1.5" fill="#000" fill-rule="nonzero" opacity=".1"/>
            <circle cx="131.5" cy="243.5" r="1.5" fill="#000" fill-rule="nonzero" opacity=".1"/>
            <circle cx="131.5" cy="246.5" r="1.5" fill="#000" fill-rule="nonzero" opacity=".1"/>
            <circle cx="131.5" cy="253.5" r="1.5" fill="#000" fill-rule="nonzero" opacity=".1"/>
            <circle cx="131.5" cy="258.5" r="1.5" fill="#000" fill-rule="nonzero" opacity=".1"/>
            <circle cx="131.5" cy="263.5" r="1.5" fill="#000" fill-rule="nonzero" opacity=".1"/>
            <circle cx="131.5" cy="269.5" r="1.5" fill="#000" fill-rule="nonzero" opacity=".1"/>
            <circle cx="131.5" cy="272.5" r="1.5" fill="#000" fill-rule="nonzero" opacity=".1"/>
            <circle cx="131.5" cy="278.5" r="1.5" fill="#000" fill-rule="nonzero" opacity=".1"/>
            <circle cx="131.5" cy="283.5" r="1.5" fill="#000" fill-rule="nonzero" opacity=".1"/>
            <circle cx="131.5" cy="289.5" r="1.5" fill="#000" fill-rule="nonzero" opacity=".1"/>
            <circle cx="131.5" cy="293.5" r="1.5" fill="#000" fill-rule="nonzero" opacity=".1"/>
            <circle cx="136.5" cy="227.5" r="1.5" fill="#000" fill-rule="nonzero" opacity=".1"/>
            <circle cx="136.5" cy="233.5" r="1.5" fill="#000" fill-rule="nonzero" opacity=".1"/>
            <circle cx="136.5" cy="238.5" r="1.5" fill="#000" fill-rule="nonzero" opacity=".1"/>
            <circle cx="136.5" cy="243.5" r="1.5" fill="#000" fill-rule="nonzero" opacity=".1"/>
            <circle cx="136.5" cy="246.5" r="1.5" fill="#000" fill-rule="nonzero" opacity=".1"/>
            <circle cx="136.5" cy="253.5" r="1.5" fill="#000" fill-rule="nonzero" opacity=".1"/>
            <circle cx="136.5" cy="258.5" r="1.5" fill="#000" fill-rule="nonzero" opacity=".1"/>
            <circle cx="136.5" cy="263.5" r="1.5" fill="#000" fill-rule="nonzero" opacity=".1"/>
            <circle cx="136.5" cy="269.5" r="1.5" fill="#000" fill-rule="nonzero" opacity=".1"/>
            <circle cx="136.5" cy="272.5" r="1.5" fill="#000" fill-rule="nonzero" opacity=".1"/>
            <circle cx="136.5" cy="278.5" r="1.5" fill="#000" fill-rule="nonzero" opacity=".1"/>
            <circle cx="136.5" cy="283.5" r="1.5" fill="#000" fill-rule="nonzero" opacity=".1"/>
            <circle cx="136.5" cy="289.5" r="1.5" fill="#000" fill-rule="nonzero" opacity=".1"/>
            <circle cx="136.5" cy="293.5" r="1.5" fill="#000" fill-rule="nonzero" opacity=".1"/>
            <circle cx="145.5" cy="227.5" r="1.5" fill="#000" fill-rule="nonzero" opacity=".1"/>
            <circle cx="145.5" cy="233.5" r="1.5" fill="#000" fill-rule="nonzero" opacity=".1"/>
            <circle cx="145.5" cy="238.5" r="1.5" fill="#000" fill-rule="nonzero" opacity=".1"/>
            <circle cx="145.5" cy="243.5" r="1.5" fill="#000" fill-rule="nonzero" opacity=".1"/>
            <circle cx="145.5" cy="246.5" r="1.5" fill="#000" fill-rule="nonzero" opacity=".1"/>
            <circle cx="145.5" cy="253.5" r="1.5" fill="#000" fill-rule="nonzero" opacity=".1"/>
            <circle cx="145.5" cy="258.5" r="1.5" fill="#000" fill-rule="nonzero" opacity=".1"/>
            <circle cx="145.5" cy="263.5" r="1.5" fill="#000" fill-rule="nonzero" opacity=".1"/>
            <circle cx="145.5" cy="269.5" r="1.5" fill="#000" fill-rule="nonzero" opacity=".1"/>
            <circle cx="145.5" cy="272.5" r="1.5" fill="#000" fill-rule="nonzero" opacity=".1"/>
            <circle cx="145.5" cy="278.5" r="1.5" fill="#000" fill-rule="nonzero" opacity=".1"/>
            <circle cx="145.5" cy="283.5" r="1.5" fill="#000" fill-rule="nonzero" opacity=".1"/>
            <circle cx="145.5" cy="289.5" r="1.5" fill="#000" fill-rule="nonzero" opacity=".1"/>
            <circle cx="145.5" cy="293.5" r="1.5" fill="#000" fill-rule="nonzero" opacity=".1"/>
            <path fill="#000" fill-rule="nonzero" d="M153 228.727c-.365.294-.87.356-1.298.16a1.193 1.193 0 0 1-.702-1.08c-.002-.3.115-.589.325-.807.159.137.312.288.466.43.422.42.822.85 1.209 1.297z" opacity=".1"/>
            <circle cx="151.5" cy="233.5" r="1.5" fill="#000" fill-rule="nonzero" opacity=".1"/>
            <circle cx="151.5" cy="238.5" r="1.5" fill="#000" fill-rule="nonzero" opacity=".1"/>
            <circle cx="151.5" cy="243.5" r="1.5" fill="#000" fill-rule="nonzero" opacity=".1"/>
            <circle cx="151.5" cy="246.5" r="1.5" fill="#000" fill-rule="nonzero" opacity=".1"/>
            <circle cx="151.5" cy="253.5" r="1.5" fill="#000" fill-rule="nonzero" opacity=".1"/>
            <circle cx="151.5" cy="258.5" r="1.5" fill="#000" fill-rule="nonzero" opacity=".1"/>
            <circle cx="151.5" cy="263.5" r="1.5" fill="#000" fill-rule="nonzero" opacity=".1"/>
            <circle cx="151.5" cy="269.5" r="1.5" fill="#000" fill-rule="nonzero" opacity=".1"/>
            <circle cx="151.5" cy="272.5" r="1.5" fill="#000" fill-rule="nonzero" opacity=".1"/>
            <circle cx="151.5" cy="278.5" r="1.5" fill="#000" fill-rule="nonzero" opacity=".1"/>
            <circle cx="151.5" cy="283.5" r="1.5" fill="#000" fill-rule="nonzero" opacity=".1"/>
            <circle cx="151.5" cy="289.5" r="1.5" fill="#000" fill-rule="nonzero" opacity=".1"/>
            <path fill="#000" fill-rule="nonzero" d="M153 292.885c-.6.74-1.24 1.446-1.92 2.115a1.54 1.54 0 0 1-1.076-1.564c.047-.7.574-1.28 1.28-1.41a1.584 1.584 0 0 1 1.716.86z" opacity=".1"/>
            <rect width="6" height="69" x="130" y="274" fill="#54576B" fill-rule="nonzero" rx="3"/>
            <rect width="46" height="8" x="110" y="335" fill="#54576B" fill-rule="nonzero" rx="4"/>
            <rect width="6" height="69" x="130" y="274" fill="#000" fill-rule="nonzero" opacity=".1" rx="3"/>
            <rect width="46" height="8" x="110" y="335" fill="#000" fill-rule="nonzero" opacity=".1" rx="4"/>
            <rect width="6" height="69" x="131" y="274" fill="#54576B" fill-rule="nonzero" rx="3"/>
            <rect width="46" height="8" x="111" y="335" fill="#54576B" fill-rule="nonzero" rx="4"/>
            <path fill="#54576B" fill-rule="nonzero" d="M173.129 282.13c-7.295 16.947-23.162 27.808-40.629 27.808s-33.334-10.86-40.629-27.808C87.137 274.88 83 260.423 83 262.14c0 29.194 22.162 52.86 49.5 52.86s49.5-23.666 49.5-52.86c0-1.717-4.137 12.74-8.871 19.99zM132.003 208c-16.302.004-31.569 8.525-40.867 22.809A50.412 50.412 0 0 0 87 250.893c0 1.706.084 3.41.253 5.107 2.332-24.495 21.666-43.132 44.747-43.132 23.08 0 42.415 18.637 44.747 43.132.169-1.696.253-3.4.253-5.107a50.412 50.412 0 0 0-4.136-20.084c-9.297-14.282-24.561-22.803-40.861-22.809z"/>
            <circle cx="133" cy="282" r="2" fill="#000" fill-rule="nonzero" opacity=".1"/>
            <circle cx="223.5" cy="331.5" r="1" fill="#000" fill-rule="nonzero" opacity=".2"/>
            <path fill="#DFE6F5" fill-rule="nonzero" d="M196.367 346a18.692 18.692 0 0 1-8.35-1.916c-9.739-4.79-14.54-4.185-21.805-3.274a97.91 97.91 0 0 1-20.552.78c-3.873-.188-7.459-2.193-9.759-5.456-10.772-14.625-3.564-53.129-3.251-54.76a.485.485 0 0 1 .562-.364c.25.051.419.296.388.56-.074.393-7.437 39.683 3.068 53.941 2.131 3.035 5.458 4.902 9.055 5.08a96.911 96.911 0 0 0 20.354-.78c7.431-.938 12.342-1.56 22.331 3.356 15.933 7.842 34.607-12.103 34.79-12.305a.47.47 0 0 1 .655.02c.18.183.197.48.038.684-.14.175-13.496 14.434-27.524 14.434z"/>
            <path fill="#535461" fill-rule="nonzero" d="M216 79.438c-7.955-15.325-24.105-25.833-42.663-25.833-26.43 0-47.94 21.26-47.94 47.395H122c0-28.12 23.023-51 51.31-51 16.38 0 30.989 7.666 40.39 19.581.77 2.67 1.358 5.402 1.941 8.127.13.585.25 1.158.359 1.73z"/>
            <path fill="#DFE6F5" fill-rule="nonzero" d="M128.36 86H133v32h-4.64c-7.379 0-13.36-5.964-13.36-13.32v-5.327a13.301 13.301 0 0 1 3.902-9.44A13.38 13.38 0 0 1 128.36 86z"/>
            <rect width="8" height="32" x="129" y="86" fill="#535461" fill-rule="nonzero" rx="4"/>
            <path fill="#EF63FF" fill-rule="nonzero" d="M412.637 315.99s-8.17-2.943-12.101 4.708c-2.108 4.216-2.042 9.285.174 13.438 2.573 4.96 7.904 11.402 18.01 10.828 8.55-.487 11.396-7.421 12.168-13.875.602-4.92-1.247-9.819-4.882-12.933-3.634-3.113-8.53-3.994-12.926-2.325l-.443.159z"/>
            <path fill="#FFF" fill-rule="nonzero" d="M402.514 335.457c-2.272-4.233-2.34-9.401-.18-13.7 4.028-7.807 12.4-4.801 12.4-4.801l.428-.162a12.93 12.93 0 0 1 9.838.234c-3.506-2.207-7.762-2.637-11.6-1.17l-.426.161s-8.373-3-12.4 4.801c-2.16 4.299-2.093 9.467.179 13.7 1.745 3.346 4.703 7.31 9.49 9.48-3.267-2.046-5.94-5-7.73-8.543z" opacity=".1"/>
            <path fill="#000" fill-rule="nonzero" d="M406 319s3.21 2.25 11 0" opacity=".2"/>
            <path fill="#EF63FF" fill-rule="nonzero" d="M407 301s4.68 15.06 4.29 19l3.71-.463s-6.266-13.208-4.684-18.537H407z"/>
            <path fill="#000" fill-rule="nonzero" d="M407 301s4.68 15.06 4.29 19l3.71-.463s-6.266-13.208-4.684-18.537H407z" opacity=".2"/>
            <path fill="#EF63FF" fill-rule="nonzero" d="M429 302.286s-8.653-4.565-12.532-.793c-3.88 3.772-4.468 13.414-4.468 13.414s14.118 2.007 17-12.621z"/>
            <path fill="#FFF" fill-rule="nonzero" d="M429 302.286s-8.653-4.565-12.532-.793c-3.88 3.772-4.468 13.414-4.468 13.414s14.118 2.007 17-12.621z" opacity=".1"/>
            <path stroke="#EF63FF" d="M412 315s2.273-10.642 17-12"/>
        </g>
    </g>
</svg>
