<svg xmlns="http://www.w3.org/2000/svg" width="117" height="165" viewBox="0 0 117 165">
    <g fill="none" fill-rule="evenodd">
        <path stroke="#535461" stroke-width="2" d="M39.895 164s8.67-43.49-9.184-73.298a66.63 66.63 0 0 1-9.359-41.463A111.988 111.988 0 0 1 25.543 29"/>
        <path fill="#EF63FF" fill-rule="nonzero" d="M14.054 10.544C14.53 15.754 25.394 30 25.394 30s8.069-15.98 7.585-21.194A9.478 9.478 0 0 0 27.54.898a9.521 9.521 0 0 0-9.573.877 9.468 9.468 0 0 0-3.906 8.763l-.006.006zM1.78 40.89C5.038 44.972 22 51 22 51s-1.944-17.644-5.202-21.724c-3.333-3.82-9.132-4.376-13.152-1.263-4.02 3.113-4.835 8.79-1.848 12.878H1.78zM6.799 89.39C11.612 91.322 29 88.046 29 88.046s-10.52-14.5-15.334-16.433C8.877 69.777 3.53 72.2 1.654 77.055-.22 81.909 2.07 87.4 6.8 89.39zM41 127.995s-8.042-15.855-12.508-18.55a9.497 9.497 0 0 0-9.54-.31 9.402 9.402 0 0 0-4.95 8.121 9.398 9.398 0 0 0 4.684 8.275C23.152 128.226 41 127.995 41 127.995zM41.615 49.695C38.186 53.66 21 59 21 59s2.697-17.636 6.12-21.594a9.596 9.596 0 0 1 9.044-3.253c3.387.61 6.18 2.977 7.308 6.196a9.375 9.375 0 0 1-1.857 9.346zM55.417 92.27C50.964 94.993 33 95 33 95s7.877-15.787 12.335-18.518a9.695 9.695 0 0 1 9.58-.412c3.035 1.562 4.977 4.602 5.08 7.956.105 3.355-1.645 6.504-4.578 8.243zM62.693 135.526C58.76 138.985 41 142 41 142s5.055-17.058 8.994-20.516a9.645 9.645 0 0 1 9.407-2.024c3.277 1.049 5.726 3.757 6.41 7.086a9.337 9.337 0 0 1-3.112 8.986l-.006-.006zM116.629 144.025s-19.767-1.174-17.438 12.466c0 0-.468 2.413 1.757 3.509 0 0 .033-1.013 2.025-.668a9.49 9.49 0 0 0 2.15.102 4.505 4.505 0 0 0 2.623-1.069s5.559-2.26 7.719-11.208c0 0 1.598-1.948 1.533-2.45l-3.333 1.381s1.14 2.367.243 4.338c0 0-.108-4.255-.748-4.144-.131.023-1.735.82-1.735.82s1.96 4.144.468 7.133c0 0 .56-5.089-1.094-6.834l-2.338 1.349s2.291 4.269.739 7.746c0 0 .397-5.338-1.234-7.414l-2.127 1.634s2.155 4.2.841 7.087c0 0-.173-6.212-1.304-6.681 0 0-1.87 1.616-2.141 2.302 0 0 1.472 3.049.556 4.66 0 0-.561-4.144-1.02-4.144 0 0-1.87 2.74-2.047 4.605 0 0 .08-2.795 1.599-4.881-1.07.197-2.06.7-2.843 1.446 0 0 .29-1.94 3.301-2.11 0 0 1.534-2.076 1.94-2.205 0 0-2.992-.249-4.806.548 0 0 1.6-1.842 5.358-1l2.099-1.69s-3.941-.53-5.61.056c0 0 1.921-1.617 6.176-.438l2.272-1.354s-3.357-.709-5.358-.46c0 0 2.109-1.12 6.031.096l1.632-.723s-2.46-.46-3.18-.552c-.72-.092-.761-.272-.761-.272a8.657 8.657 0 0 1 4.623.507s3.488-1.276 3.432-1.488z"/>
        <ellipse cx="103" cy="161" fill="#EF63FF" fill-rule="nonzero" opacity=".1" rx="14" ry="2"/>
        <path fill="#EF63FF" fill-rule="nonzero" d="M82.76 145.014s-12.076-.662-10.642 7.014c-.15.8.283 1.595 1.075 1.972 0 0 0-.565 1.236-.372.434.064.874.083 1.313.055a2.858 2.858 0 0 0 1.606-.602s3.396-1.269 4.713-6.306c0 0 .978-1.094.938-1.38l-2.027.791s.694 1.333.147 2.441c0 0-.066-2.39-.456-2.335-.082 0-1.06.46-1.06.46s1.201 2.325.294 4.012c0 0 .345-2.863-.669-3.842l-1.454.758s1.399 2.4.451 4.357c0 0 .243-3.001-.75-4.168l-1.302.919s1.317 2.362.506 3.985c0 0-.101-3.493-.795-3.76a7.42 7.42 0 0 0-1.308 1.287s.897 1.714.34 2.62c0 0-.34-2.326-.624-2.34 0 0-1.135 1.545-1.251 2.602.055-.981.392-1.932.978-2.758a3.564 3.564 0 0 0-1.739.814s.178-1.09 2.028-1.186c0 0 .937-1.168 1.185-1.241 0 0-1.829-.138-2.934.308 0 0 .973-1.03 3.269-.561l1.287-.951s-2.407-.3-3.43.032c0 0 1.175-.92 3.775-.248l1.398-.759a14.054 14.054 0 0 0-3.278-.257s1.292-.63 3.689.055l1.013-.41s-1.52-.266-1.946-.307c-.425-.041-.46-.152-.46-.152a5.645 5.645 0 0 1 2.822.285s2.103-.712 2.063-.832z"/>
        <ellipse cx="74" cy="155.5" fill="#EF63FF" fill-rule="nonzero" opacity=".1" rx="8" ry="1.5"/>
        <path fill="#EF63FF" fill-rule="nonzero" d="M103.738 129.017s-13.161-.804-11.611 8.574a2.3 2.3 0 0 0 1.17 2.409s.024-.697 1.373-.465c.472.081.953.105 1.431.07a2.928 2.928 0 0 0 1.738-.72s3.7-1.554 5.14-7.701c0 0 1.061-1.34 1.02-1.688l-2.218.967s.754 1.628.16 2.98c0 0-.073-2.92-.499-2.854-.086 0-1.152.567-1.152.567s1.303 2.836.32 4.901c0 0 .37-3.497-.732-4.696l-1.559.93s1.523 2.934.49 5.324c0 0 .265-3.669-.82-5.115l-1.417 1.125s1.431 2.888.558 4.868c0 0-.114-4.268-.864-4.589 0 0-1.24 1.111-1.432 1.567 0 0 .983 2.097.375 3.204 0 0-.375-2.846-.681-2.86 0 0-1.235 1.888-1.372 3.176a6.947 6.947 0 0 1 1.065-3.357 3.707 3.707 0 0 0-1.893 1s.192-1.335 2.2-1.451c0 0 1.02-1.432 1.29-1.516 0 0-1.99-.172-3.202.372 0 0 1.066-1.255 3.567-.684l1.4-1.162s-2.625-.363-3.737.037c0 0 1.28-1.111 4.116-.297l1.523-.93s-2.236-.465-3.567-.312c0 0 1.404-.772 4.015.065l1.089-.497s-1.637-.326-2.118-.377c-.48-.051-.507-.19-.507-.19a5.598 5.598 0 0 1 3.077.348s2.319-.874 2.264-1.023z"/>
        <ellipse cx="93" cy="140" fill="#EF63FF" fill-rule="nonzero" opacity=".1" rx="10" ry="2"/>
    </g>
</svg>
